<?xml version="1.0" encoding="utf-8"?>
<!-- Generator: Adobe Illustrator 22.1.0, SVG Export Plug-In . SVG Version: 6.00 Build 0)  -->
<svg version="1.1" xmlns="http://www.w3.org/2000/svg" xmlns:xlink="http://www.w3.org/1999/xlink" x="0px" y="0px"
	 viewBox="0 0 141.7 38.3" style="enable-background:new 0 0 141.7 38.3;" xml:space="preserve">
<style type="text/css">
	.st0{fill:#009CDE;}
	.st1{fill:#FFFFFF;}
	.st2{fill:#E3000F;}
	.st3{fill:#50AE30;}
	.st4{fill:url(#SVGID_1_);}
</style>
<g id="LOGO__x2B__ICON">
</g>
<g id="PICT">
</g>
<g id="TYPO">
	<g>
		<g>
			<circle class="st0" cx="121.2" cy="33.3" r="5"/>
			<g>
				<path class="st1" d="M125.5,34.6c0-0.3-1.1-0.6-2.3-0.8c1.2-0.6,2.4-1.3,2.3-1.6c-0.1-0.3-1.4,0-2.6,0.3
					c0.7-1.1,1.4-2.2,1.2-2.4c-0.2-0.2-1.2,0.7-2.2,1.5c0.1-1.3,0.1-2.5-0.1-2.6c-0.3,0-0.8,1.3-1.2,2.5c-0.4-1.2-0.9-2.2-1.2-2.2
					c-0.3,0.1-0.2,1.4-0.1,2.7c0,0,0,0,0,0c-0.9-0.7-1.7-1.3-1.9-1.1c-0.2,0.2,0.5,1.2,1.2,2.1c-0.8,0.1-1.5,0.2-1.5,0.4
					c0,0.2,0.9,0.5,1.9,0.7c0,0,0,0,0,0c-0.8,0.3-1.4,0.7-1.3,0.9c0.1,0.2,0.7,0.2,1.5,0.1c-0.4,0.5-0.6,0.9-0.5,1
					c0.1,0.1,0.6-0.1,1.2-0.5c0.1,0.8,0.2,1.5,0.4,1.5c0.2,0,0.4-0.6,0.7-1.5c0.4,1,0.8,1.8,1,1.7c0.2-0.1,0.2-0.7,0.2-1.6
					c1.1,0.6,2.1,1.1,2.3,0.9c0.1-0.2-0.6-1-1.4-1.8C124.1,35,125.5,34.9,125.5,34.6z M119.4,32.1C119.4,32.1,119.4,32.1,119.4,32.1
					C119.4,32.1,119.4,32.1,119.4,32.1C119.3,32.1,119.4,32.1,119.4,32.1z M122.7,34.9c0-0.5-0.3-1.2-0.4-1.6
					c0.1,0.5,0.2,1.3,0.3,1.8c0,0,0,0.1-0.1,0.1c-0.1,0.1-0.2,0.2-0.3,0.2c0-1-0.3-2.5-0.3-2.5c0.1,0.9,0.2,1.9,0.2,2.5
					c-0.1,0.1-0.3,0.1-0.4,0.2c0-0.6,0-1.9,0-2.5c-0.1,0.6-0.3,2-0.2,2.5c-0.2,0-0.3,0.1-0.5,0.1c0.1-0.6,0.3-2,0.6-2.7
					c-0.2,0.5-0.7,2-0.7,2.7c-0.1,0-0.3,0-0.4-0.1c0.2-0.5,0.6-2,1.2-2.8c0,0-1.3,1.9-1.3,2.8c-0.2-0.1-0.3-0.2-0.5-0.3
					c0.3-0.4,1-2,1.7-2.6c0,0-1.6,1.4-1.8,2.5c0,0,0,0,0,0.1c0,0,0,0-0.1,0c-0.1-0.1-0.2-0.2-0.3-0.3c0.3-0.3,0.9-1.3,1.6-1.9
					c-0.6,0.5-1.6,1.2-1.7,1.8c-0.1-0.1-0.1-0.3-0.2-0.4c0.3-0.3,1-1.2,2-1.6c-0.6,0.2-1.8,0.8-2.1,1.3c0-0.1,0-0.3-0.1-0.4
					c0.4-0.3,1.1-0.9,2-1.1c-0.5,0.1-1.5,0.3-2,0.7c0-0.2,0.1-0.3,0.2-0.5c0.4-0.2,1.2-0.5,1.9-0.5c-0.4-0.1-1.1-0.1-1.7,0.1
					c0,0,0,0,0,0c0.1-0.2,0.3-0.3,0.5-0.4c0.3-0.1,0.8-0.1,1.2,0c-0.2-0.1-0.6-0.2-0.9-0.2c0.2-0.1,0.5-0.1,0.7-0.1
					c0.2,0.1,0.4,0.1,0.5,0.2c0,0-0.1-0.1-0.3-0.2c0.4,0.1,0.7,0.2,1.1,0.5c0.1,0.1,0.2,0.2,0.3,0.3c-0.1,0-0.1,0-0.1,0
					c0.1,0,0.1,0,0.2,0.1c0.1,0.1,0.1,0.2,0.2,0.3c-0.2-0.1-0.3-0.2-0.3-0.2c0.1,0.1,0.3,0.2,0.4,0.3c0.1,0.3,0.2,0.6,0.2,0.9
					c-0.1-0.3-0.3-0.6-0.4-0.8c0.2,0.3,0.3,0.8,0.4,1.1C122.9,34.5,122.9,34.7,122.7,34.9z"/>
				<path class="st1" d="M121.2,32.7c0.2-0.1,0.3-0.1,0.3-0.1C121.4,32.6,121.3,32.6,121.2,32.7z"/>
				<path class="st1" d="M121.1,32.9c0.3-0.2,0.5-0.4,0.5-0.4C121.4,32.7,121.2,32.8,121.1,32.9z"/>
				<path class="st1" d="M121.7,33c0-0.1,0.1-0.2,0.1-0.2C121.8,32.9,121.7,33,121.7,33z"/>
				<path class="st1" d="M121.8,33.1c0-0.1,0-0.2,0-0.2C121.9,33,121.8,33,121.8,33.1z"/>
				<path class="st1" d="M122.3,33.3c0-0.2-0.1-0.3-0.2-0.4C122.2,32.9,122.2,33,122.3,33.3z"/>
				<path class="st1" d="M122.5,33.1c-0.1-0.1-0.1-0.2-0.2-0.3C122.3,32.9,122.4,33,122.5,33.1z"/>
				<path class="st1" d="M121,32.5c0.2,0,0.4,0,0.4,0C121.2,32.4,121.1,32.4,121,32.5z"/>
				<path class="st1" d="M121.1,32.3c0.1,0,0.2,0,0.2,0C121.2,32.3,121.2,32.3,121.1,32.3z"/>
				<path class="st1" d="M121.3,32.3C121.3,32.3,121.3,32.3,121.3,32.3C121.3,32.3,121.3,32.3,121.3,32.3z"/>
				<path class="st1" d="M121.2,32c0.1,0,0.2,0.1,0.3,0.1C121.3,32.1,121.2,32,121.2,32z"/>
				<path class="st1" d="M121.4,32.1C121.4,32.1,121.4,32.1,121.4,32.1C121.4,32.1,121.4,32.1,121.4,32.1z"/>
			</g>
		</g>
		<g>
			<g>
				<circle class="st2" cx="105.6" cy="33.3" r="5"/>
				<g>
					<path class="st1" d="M108.3,32.1c0.2,0.7,0.4,1.2,0.3,1.9c0,0.6-0.3,1.6-0.8,1.9c0.8-0.3,1.6-0.5,1.8-1.5
						C109.8,33.5,108.9,32.7,108.3,32.1z"/>
					<path class="st1" d="M107.9,34.2c0.1-0.5,0-1.1-0.1-1.6c-0.1-0.7-0.6-1.3-1.3-1.5c-1-0.3-1.8,0.1-2.7,0.4c0,0,0.6-0.4,1-0.6
						c0.6-0.2,2-0.6,3.5,0.6c-0.1-0.3-0.3-0.7-0.4-1c-0.5-1-1.3-1.2-2.2-0.7c-0.4,0.3-0.8,0.3-1.3,0.3c-1.6-0.2-2.3,0.6-2.1,2.2
						c0,0.3-0.2,0.7-0.2,0.9c0,0.4-0.1,0.7,0.1,1.1c0.4,1.1,2,1.6,2.9,1.8c0,0,0,0,0,0c-0.9,0.2-2.1,0-3-0.5
						C104.1,38.2,107.9,36.9,107.9,34.2z M103.5,32.8c0.1-0.4,0.5-0.7,0.8-0.8c0.4-0.1,0.9,0,1.3-0.2c0.6-0.2,1,0.1,1.2,0.6
						c0.1,0.4,0.2,0.7,0.2,1c0.1,1,0,1.2-0.9,1.7c-0.2,0.1-0.5,0.1-0.7,0.1C104.3,34.8,103.2,34.2,103.5,32.8z"/>
					<path class="st1" d="M106.4,34.1c0.3-0.3-0.6,0.2-1.2-0.4c-0.7-0.6-0.2-1.5-0.5-1.2c-0.3,0.2-0.7,1.1,0,1.7
						C105.3,34.8,106.2,34.4,106.4,34.1z"/>
					<path class="st1" d="M105.8,33.1c0.4,0.3,0.2,0.9,0.4,0.7c0.2-0.2,0.4-0.7-0.1-1.1c-0.4-0.4-0.9,0-1.1,0.1
						C104.8,33,105.3,32.7,105.8,33.1z"/>
				</g>
			</g>
			<g>
				<path class="st3" d="M141.7,33.3c0,2.7-2.2,5-5,5c-2.7,0-5-2.2-5-5c0-2.7,2.2-5,5-5C139.5,28.4,141.7,30.6,141.7,33.3"/>
				<path class="st1" d="M139.7,36.5C139.7,36.5,139.7,36.5,139.7,36.5c-0.2-0.2-0.4-0.3-0.5-0.5c-0.2-0.2-0.4-0.4-0.7-0.6
					c-0.1-0.1-0.1-0.1-0.2-0.1c-0.4-0.1-0.7-0.2-1.1-0.3c-0.4-0.1-0.8-0.2-1.2-0.3c-0.3-0.1-0.5-0.2-0.8-0.2
					c-0.3-0.1-0.6-0.2-0.9-0.4c0,0,0,0,0-0.1c0,0,0,0,0.1,0c0.1,0,0.2,0,0.4,0c0.3,0,0.5,0,0.8,0.1c0.2,0,0.4,0,0.7,0
					c0.2,0,0.5,0,0.7,0c0,0,0,0,0.1,0c0,0,0-0.1,0-0.1c-0.1-0.1-0.3-0.3-0.4-0.4c-0.2-0.2-0.4-0.4-0.7-0.7c-0.3-0.3-0.5-0.5-0.8-0.8
					c-0.2-0.2-0.4-0.4-0.6-0.6c-0.2-0.2-0.4-0.3-0.6-0.5c-0.2-0.2-0.4-0.3-0.6-0.4c0,0,0,0-0.1,0c0,0,0,0.1,0,0.1c0,0.2,0,0.4,0,0.6
					c0,0.3,0,0.6,0,1c0,0.5,0.1,0.9,0.2,1.4c0.1,0.3,0.1,0.6,0.3,0.8c0.2,0.3,0.4,0.6,0.6,0.9c0.2,0.2,0.4,0.3,0.6,0.5
					c0.3,0.2,0.6,0.4,0.9,0.5c0.2,0.1,0.4,0.1,0.7,0.2c0.1,0,0.3,0,0.5,0.1c0.1,0,0.2,0,0.3,0c0.1,0,0.3,0,0.4,0c0.2,0,0.3,0,0.5,0
					C138.7,36.7,139.2,36.6,139.7,36.5C139.7,36.5,139.7,36.5,139.7,36.5 M137.5,33.7C137.5,33.7,137.5,33.7,137.5,33.7
					C137.5,33.6,137.5,33.6,137.5,33.7c0-0.2-0.1-0.3-0.1-0.5c-0.1-0.3-0.2-0.5-0.3-0.8c-0.1-0.2-0.1-0.4-0.2-0.7
					c0-0.1-0.1-0.3-0.1-0.4c0-0.1-0.1-0.3-0.1-0.4c0,0,0-0.1,0-0.1c0,0,0.1,0,0.1,0.1c0.1,0.1,0.1,0.2,0.2,0.3
					c0.2,0.3,0.3,0.5,0.5,0.8c0.1,0.2,0.2,0.3,0.3,0.5c0.2,0.3,0.3,0.6,0.5,1c0.2,0.4,0.4,0.8,0.6,1.2c0.1,0.1,0.1,0.2,0.2,0.3
					c0.2,0.2,0.5,0.4,0.7,0.6c0.2,0.1,0.3,0.2,0.5,0.4c0,0,0,0,0,0c0-0.1,0-0.2,0-0.3c0-0.2,0-0.5-0.1-0.7c0-0.3-0.1-0.7-0.2-1
					c0-0.1-0.1-0.2-0.1-0.3c-0.1-0.3-0.2-0.6-0.4-0.9c-0.1-0.3-0.3-0.5-0.4-0.8c-0.3-0.4-0.6-0.7-0.9-1c-0.2-0.2-0.5-0.4-0.8-0.5
					c-0.2-0.1-0.5-0.1-0.7-0.2c-0.2,0-0.3,0-0.5,0c-0.2,0-0.4,0-0.6,0c-0.5,0-1,0.1-1.5,0.3c-0.2,0.1-0.4,0.1-0.5,0.1c0,0,0,0,0,0
					c0.1,0,0.1,0,0.2,0.1c0.3,0.1,0.7,0.3,1,0.5c0.4,0.3,0.9,0.6,1.3,1c0.2,0.1,0.3,0.3,0.5,0.5c0.2,0.2,0.3,0.3,0.4,0.5
					c0.2,0.2,0.3,0.3,0.5,0.5C137.4,33.5,137.4,33.6,137.5,33.7"/>
			</g>
		</g>
		<path class="st0" d="M13.1,3.7c2.3,0,4.4,0.4,6.2,1.2C20.5,5.4,21,6,21,6.8c0,0.8-0.6,1.4-1.4,1.4c-0.4,0-1.4-0.7-2.7-1.2
			c-1.2-0.4-2.5-0.6-3.9-0.6c-5.3-0.1-10.1,4.7-10,10.2c-0.1,6,4.7,10.4,10,10.3c1.4,0,2.7-0.2,3.9-0.6c1.5-0.5,2.4-1.2,2.9-1.2
			c0.7,0,1.4,0.6,1.4,1.4s-0.6,1.3-1.8,1.8c-1.8,0.8-3.9,1.3-6.3,1.3C6,29.7-0.1,24.3,0,16.6C0,9.5,6,3.7,13.1,3.7z M75.4,8.5h-1v0
			c-3,0-5.3,1-6.4,2.7c-0.8,1.3-1.3,2.8-1.3,4.7v8.6c0,0.7,0.6,1.3,1.4,1.3c0.7,0,1.4-0.6,1.4-1.3v-8.4c0-1.4,0.2-2.5,0.7-3.2
			c0.7-1.2,2.2-2,4.3-2v0h1c0.6,0,1.1-0.5,1.1-1.2C76.5,9.1,76,8.5,75.4,8.5z M78.8,9.5c0-0.7,0.6-1.3,1.4-1.3
			c0.7,0,1.4,0.6,1.4,1.3v14.7c0,0.7-0.6,1.3-1.4,1.3c-0.7,0-1.4-0.6-1.4-1.3V9.5z M80.2,0.8c0.2-0.7,1-1,1.7-0.7
			c0.7,0.3,1.1,1,0.8,1.7l-1.4,3.8c-0.2,0.7-1,1-1.7,0.7c-0.7-0.3-1.1-1-0.8-1.7L80.2,0.8z M39.9,1.3c0-0.7,0.6-1.3,1.4-1.3
			c0.7,0,1.4,0.6,1.4,1.3v23.2c0,0.7-0.6,1.3-1.4,1.3c-0.7,0-1.4-0.6-1.4-1.3V1.3z M48.3,10.9c1.6-1.6,3.9-2.5,6.3-2.5
			c2.5,0,4.7,0.8,6.3,2.5c1.7,1.6,2.5,3.7,2.5,6.2c0,2.4-0.9,4.6-2.5,6.2c-1.7,1.7-3.8,2.5-6.3,2.5c-2.5,0-4.8-0.9-6.3-2.5
			c-1.7-1.6-2.5-3.7-2.5-6.2C45.9,14.6,46.7,12.5,48.3,10.9z M54.7,23.6c1.8,0,3.4-0.7,4.5-2c1.1-1.2,1.6-2.7,1.6-4.5
			c0-1.8-0.6-3.3-1.6-4.5c-1.1-1.3-2.7-2-4.5-2c-1.8,0-3.4,0.7-4.5,2c-1.1,1.2-1.7,2.7-1.7,4.5c0,1.8,0.6,3.3,1.7,4.5
			C51.4,22.9,52.9,23.6,54.7,23.6z M21.6,10.9c1.6-1.6,3.9-2.5,6.3-2.5c2.5,0,4.7,0.8,6.3,2.5c1.7,1.6,2.5,3.7,2.5,6.2
			c0,2.4-0.9,4.6-2.5,6.2c-1.7,1.7-3.8,2.5-6.3,2.5c-2.5,0-4.8-0.9-6.3-2.5c-1.7-1.6-2.5-3.7-2.5-6.2C19.2,14.6,20,12.5,21.6,10.9z
			 M28,23.6c1.8,0,3.4-0.7,4.5-2c1.1-1.2,1.6-2.7,1.6-4.5c0-1.8-0.6-3.3-1.6-4.5c-1.1-1.3-2.7-2-4.5-2c-1.8,0-3.4,0.7-4.5,2
			c-1.1,1.2-1.7,2.7-1.7,4.5c0,1.8,0.6,3.3,1.7,4.5C24.7,22.9,26.2,23.6,28,23.6z M104.1,0.5c0.6-0.6,1.7-0.6,2.3,0
			c0.6,0.6,0.6,1.7,0,2.3c-0.6,0.6-1.7,0.6-2.3,0C103.4,2.1,103.4,1.1,104.1,0.5z M103.9,9.8c0-0.7,0.6-1.3,1.4-1.3s1.4,0.6,1.4,1.3
			v14.7c0,0.7-0.6,1.3-1.4,1.3s-1.4-0.6-1.4-1.3V9.8z M125.9,24.5c0,0.7-0.6,1.3-1.4,1.3c-0.7,0-1.3-0.6-1.3-1.3v-8.4
			c0-1.3-0.2-2.4-0.7-3.2c-0.7-1.2-2.2-2-4.3-2c-2.1,0-3.6,0.8-4.3,2c-0.4,0.8-0.7,1.9-0.7,3.2v8.4c0,0.7-0.6,1.3-1.4,1.3
			c-0.7,0-1.4-0.6-1.4-1.3v-8.6c0-1.9,0.4-3.5,1.3-4.7c1.1-1.7,3.4-2.7,6.4-2.7c3.1,0,5.2,0.9,6.5,2.7c0.8,1.3,1.2,2.8,1.2,4.7V24.5
			z M128.6,8.7h11.6c0.7,0,1.1,0.5,1.1,1.1c0,0.3-0.2,0.8-0.5,1.2l-9.3,12.3h9.1c0.6,0,1.1,0.6,1.1,1.2s-0.5,1.2-1.1,1.2h-11.6
			c-0.7,0-1.1-0.5-1.1-1.1c0-0.3,0.1-0.7,0.5-1.1l9.3-12.4h-9c-0.6,0-1.1-0.5-1.1-1.2C127.5,9.2,128,8.7,128.6,8.7z M99.5,15
			c-0.1-1.6-0.5-2.9-1.2-4c-1.2-1.8-3.4-2.7-6.5-2.7c-3,0-5.3,1.5-6.4,3.2c-0.7,1.1-1.1,2.5-1.2,4c0,0.1,0,3.4,0,3.4
			c0.1,1.6,0.5,2.9,1.2,4c1.1,1.7,3.4,2.9,6.4,2.9c0,0,1,0,1,0c0.6,0,1.1-0.5,1.1-1.2c0-0.7-0.5-1.2-1.1-1.2c0,0-1,0-1,0
			c-2.1,0-3.6-0.9-4.3-2.2c-0.4-0.8-0.7-1.7-0.7-3.1v-1.8c0-1.4,0.2-2.5,0.7-3.2c0.7-1.2,2.2-2.5,4.3-2.5c2.1,0,3.6,0.8,4.3,2
			c0.5,0.8,0.7,1.8,0.7,3.1v10.5c0,1.7-0.4,3.1-1.2,3.9c-0.8,0.9-2.1,1.4-3.8,1.4c-1.3,0-2.5-0.4-3.5-1.1c-1-0.7-1.1-1.1-1.8-1.1
			c-0.7,0-1.1,0.5-1.1,1.2c0,0.7,0.6,1.4,1.8,2c1.4,0.7,2.9,1.1,4.6,1.1c2.4,0,4.3-0.6,5.6-1.9c1.4-1.4,2.1-3.4,2.1-6
			C99.5,25.9,99.5,15.1,99.5,15z"/>
	</g>
	<linearGradient id="SVGID_1_" gradientUnits="userSpaceOnUse" x1="0" y1="16.947" x2="141.7323" y2="16.947">
		<stop  offset="0" style="stop-color:#E3000F"/>
		<stop  offset="6.040064e-02" style="stop-color:#E20613;stop-opacity:0.8795"/>
		<stop  offset="0.123" style="stop-color:#DD151C;stop-opacity:0.7546"/>
		<stop  offset="0.1867" style="stop-color:#D52229;stop-opacity:0.6276"/>
		<stop  offset="0.2511" style="stop-color:#CA2F3B;stop-opacity:0.4992"/>
		<stop  offset="0.3161" style="stop-color:#BB3C51;stop-opacity:0.3696"/>
		<stop  offset="0.3816" style="stop-color:#A6476B;stop-opacity:0.239"/>
		<stop  offset="0.4462" style="stop-color:#895188;stop-opacity:0.1102"/>
		<stop  offset="0.5014" style="stop-color:#6758A2;stop-opacity:0"/>
		<stop  offset="0.5564" style="stop-color:#616F9C;stop-opacity:0.1102"/>
		<stop  offset="0.6206" style="stop-color:#5C838D;stop-opacity:0.239"/>
		<stop  offset="0.6857" style="stop-color:#589279;stop-opacity:0.3696"/>
		<stop  offset="0.7503" style="stop-color:#569D62;stop-opacity:0.4992"/>
		<stop  offset="0.8143" style="stop-color:#54A44E;stop-opacity:0.6276"/>
		<stop  offset="0.8777" style="stop-color:#52AA3F;stop-opacity:0.7546"/>
		<stop  offset="0.9399" style="stop-color:#51AD34;stop-opacity:0.8795"/>
		<stop  offset="1" style="stop-color:#50AE30"/>
	</linearGradient>
	<path class="st4" d="M13.1,3.7c2.3,0,4.4,0.4,6.2,1.2C20.5,5.4,21,6,21,6.8c0,0.8-0.6,1.4-1.4,1.4c-0.4,0-1.4-0.7-2.7-1.2
		c-1.2-0.4-2.5-0.6-3.9-0.6c-5.3-0.1-10.1,4.7-10,10.2c-0.1,6,4.7,10.4,10,10.3c1.4,0,2.7-0.2,3.9-0.6c1.5-0.5,2.4-1.2,2.9-1.2
		c0.7,0,1.4,0.6,1.4,1.4s-0.6,1.3-1.8,1.8c-1.8,0.8-3.9,1.3-6.3,1.3C6,29.7-0.1,24.3,0,16.6C0,9.5,6,3.7,13.1,3.7z M75.4,8.5h-1v0
		c-3,0-5.3,1-6.4,2.7c-0.8,1.3-1.3,2.8-1.3,4.7v8.6c0,0.7,0.6,1.3,1.4,1.3c0.7,0,1.4-0.6,1.4-1.3v-8.4c0-1.4,0.2-2.5,0.7-3.2
		c0.7-1.2,2.2-2,4.3-2v0h1c0.6,0,1.1-0.5,1.1-1.2C76.5,9.1,76,8.5,75.4,8.5z M78.8,9.5c0-0.7,0.6-1.3,1.4-1.3c0.7,0,1.4,0.6,1.4,1.3
		v14.7c0,0.7-0.6,1.3-1.4,1.3c-0.7,0-1.4-0.6-1.4-1.3V9.5z M80.2,0.8c0.2-0.7,1-1,1.7-0.7c0.7,0.3,1.1,1,0.8,1.7l-1.4,3.8
		c-0.2,0.7-1,1-1.7,0.7c-0.7-0.3-1.1-1-0.8-1.7L80.2,0.8z M39.9,1.3c0-0.7,0.6-1.3,1.4-1.3c0.7,0,1.4,0.6,1.4,1.3v23.2
		c0,0.7-0.6,1.3-1.4,1.3c-0.7,0-1.4-0.6-1.4-1.3V1.3z M48.3,10.9c1.6-1.6,3.9-2.5,6.3-2.5c2.5,0,4.7,0.8,6.3,2.5
		c1.7,1.6,2.5,3.7,2.5,6.2c0,2.4-0.9,4.6-2.5,6.2c-1.7,1.7-3.8,2.5-6.3,2.5c-2.5,0-4.8-0.9-6.3-2.5c-1.7-1.6-2.5-3.7-2.5-6.2
		C45.9,14.6,46.7,12.5,48.3,10.9z M54.7,23.6c1.8,0,3.4-0.7,4.5-2c1.1-1.2,1.6-2.7,1.6-4.5c0-1.8-0.6-3.3-1.6-4.5
		c-1.1-1.3-2.7-2-4.5-2c-1.8,0-3.4,0.7-4.5,2c-1.1,1.2-1.7,2.7-1.7,4.5c0,1.8,0.6,3.3,1.7,4.5C51.4,22.9,52.9,23.6,54.7,23.6z
		 M21.6,10.9c1.6-1.6,3.9-2.5,6.3-2.5c2.5,0,4.7,0.8,6.3,2.5c1.7,1.6,2.5,3.7,2.5,6.2c0,2.4-0.9,4.6-2.5,6.2
		c-1.7,1.7-3.8,2.5-6.3,2.5c-2.5,0-4.8-0.9-6.3-2.5c-1.7-1.6-2.5-3.7-2.5-6.2C19.2,14.6,20,12.5,21.6,10.9z M28,23.6
		c1.8,0,3.4-0.7,4.5-2c1.1-1.2,1.6-2.7,1.6-4.5c0-1.8-0.6-3.3-1.6-4.5c-1.1-1.3-2.7-2-4.5-2c-1.8,0-3.4,0.7-4.5,2
		c-1.1,1.2-1.7,2.7-1.7,4.5c0,1.8,0.6,3.3,1.7,4.5C24.7,22.9,26.2,23.6,28,23.6z M104.1,0.5c0.6-0.6,1.7-0.6,2.3,0
		c0.6,0.6,0.6,1.7,0,2.3c-0.6,0.6-1.7,0.6-2.3,0C103.4,2.1,103.4,1.1,104.1,0.5z M103.9,9.8c0-0.7,0.6-1.3,1.4-1.3s1.4,0.6,1.4,1.3
		v14.7c0,0.7-0.6,1.3-1.4,1.3s-1.4-0.6-1.4-1.3V9.8z M125.9,24.5c0,0.7-0.6,1.3-1.4,1.3c-0.7,0-1.3-0.6-1.3-1.3v-8.4
		c0-1.3-0.2-2.4-0.7-3.2c-0.7-1.2-2.2-2-4.3-2c-2.1,0-3.6,0.8-4.3,2c-0.4,0.8-0.7,1.9-0.7,3.2v8.4c0,0.7-0.6,1.3-1.4,1.3
		c-0.7,0-1.4-0.6-1.4-1.3v-8.6c0-1.9,0.4-3.5,1.3-4.7c1.1-1.7,3.4-2.7,6.4-2.7c3.1,0,5.2,0.9,6.5,2.7c0.8,1.3,1.2,2.8,1.2,4.7V24.5z
		 M128.6,8.7h11.6c0.7,0,1.1,0.5,1.1,1.1c0,0.3-0.2,0.8-0.5,1.2l-9.3,12.3h9.1c0.6,0,1.1,0.6,1.1,1.2s-0.5,1.2-1.1,1.2h-11.6
		c-0.7,0-1.1-0.5-1.1-1.1c0-0.3,0.1-0.7,0.5-1.1l9.3-12.4h-9c-0.6,0-1.1-0.5-1.1-1.2C127.5,9.2,128,8.7,128.6,8.7z M99.5,15
		c-0.1-1.6-0.5-2.9-1.2-4c-1.2-1.8-3.4-2.7-6.5-2.7c-3,0-5.3,1.5-6.4,3.2c-0.7,1.1-1.1,2.5-1.2,4c0,0.1,0,3.4,0,3.4
		c0.1,1.6,0.5,2.9,1.2,4c1.1,1.7,3.4,2.9,6.4,2.9c0,0,1,0,1,0c0.6,0,1.1-0.5,1.1-1.2c0-0.7-0.5-1.2-1.1-1.2c0,0-1,0-1,0
		c-2.1,0-3.6-0.9-4.3-2.2c-0.4-0.8-0.7-1.7-0.7-3.1v-1.8c0-1.4,0.2-2.5,0.7-3.2c0.7-1.2,2.2-2.5,4.3-2.5c2.1,0,3.6,0.8,4.3,2
		c0.5,0.8,0.7,1.8,0.7,3.1v10.5c0,1.7-0.4,3.1-1.2,3.9c-0.8,0.9-2.1,1.4-3.8,1.4c-1.3,0-2.5-0.4-3.5-1.1c-1-0.7-1.1-1.1-1.8-1.1
		c-0.7,0-1.1,0.5-1.1,1.2c0,0.7,0.6,1.4,1.8,2c1.4,0.7,2.9,1.1,4.6,1.1c2.4,0,4.3-0.6,5.6-1.9c1.4-1.4,2.1-3.4,2.1-6
		C99.5,25.9,99.5,15.1,99.5,15z"/>
</g>
</svg>
