<svg xmlns="http://www.w3.org/2000/svg" width="256" height="256" viewBox="0 0 256 256">
<g>
<path d="M 42.68 122.98 C46.70,124.19 47.06,124.15 51.52,122.13 C59.75,118.39 69.73,103.45 77.55,83.17 C79.85,77.22 80.15,75.52 79.18,74.17 C72.75,65.29 72.19,60.13 77.05,54.60 C82.89,47.95 91.13,47.45 96.89,53.39 C102.86,59.55 102.16,68.25 95.22,73.97 L 91.72 76.85 L 93.43 81.18 C95.78,87.14 104.59,103.56 107.76,107.92 C124.08,130.28 137.06,128.04 150.77,100.50 C154.81,92.38 160.00,78.94 160.00,76.60 C160.00,75.90 158.85,74.80 157.44,74.16 C153.95,72.57 150.61,64.90 151.45,60.43 C152.91,52.61 161.39,47.60 169.18,49.94 C173.42,51.21 177.43,55.83 178.44,60.61 C179.24,64.40 176.65,71.43 173.69,73.50 C171.64,74.94 171.64,75.00 173.43,80.73 C176.07,89.11 184.04,104.53 189.48,111.76 C194.49,118.42 200.61,122.74 206.36,123.67 C213.98,124.91 223.26,117.38 232.62,102.36 C237.06,95.23 237.18,94.85 235.38,93.49 C234.35,92.70 233.21,92.05 232.86,92.03 C232.51,92.01 231.50,90.47 230.61,88.60 C225.95,78.76 232.23,69.00 243.23,69.00 C248.16,69.00 251.33,70.86 254.08,75.37 C255.98,78.49 255.99,78.32 256.00,39.25 L 256.00 0.00 L 256.00 170.77 C256.00,87.32 255.96,85.60 254.15,88.97 C253.14,90.87 250.93,93.11 249.25,93.96 C246.34,95.42 245.51,97.47 233.09,133.79 L 220.00 172.07 L 220.00 188.34 C220.00,199.65 219.63,204.97 218.80,205.80 C217.88,206.72 196.44,207.00 128.37,207.00 C48.59,207.00 38.98,206.83 37.57,205.43 C36.27,204.13 36.00,201.04 36.00,187.58 L 36.00 171.30 L 24.40 137.40 C18.02,118.75 12.16,101.70 11.39,99.50 C10.50,97.00 8.86,94.86 7.01,93.81 C5.38,92.88 3.13,90.63 2.02,88.81 L 0.01 85.50 L 0.00 256.00 L 0.00 0.00 L 0.02 39.75 C0.04,77.52 0.13,79.33 1.71,76.12 C5.45,68.53 16.04,66.47 22.44,72.08 C28.93,77.78 28.94,86.49 22.48,92.58 L 19.19 95.69 L 22.09 101.00 C28.41,112.55 36.42,121.10 42.68,122.98 ZM 43.31 165.76 C43.96,166.75 61.71,166.96 128.68,166.76 L 213.24 166.50 L 220.62 145.13 C224.68,133.37 228.00,123.27 228.00,122.68 C228.00,122.09 226.54,123.02 224.75,124.75 C222.96,126.47 219.48,128.80 217.00,129.92 C200.74,137.27 183.04,123.86 169.94,94.25 C168.18,90.26 166.43,87.00 166.06,87.00 C165.70,87.00 164.57,89.36 163.57,92.25 C160.30,101.62 152.71,114.98 147.17,121.10 C140.62,128.34 135.30,131.26 128.51,131.35 C115.76,131.53 102.95,119.06 90.89,94.75 C88.51,89.94 86.24,86.00 85.85,86.00 C85.46,86.00 84.21,88.48 83.08,91.52 C77.97,105.19 68.40,120.06 60.92,125.97 C51.64,133.30 42.84,133.77 33.50,127.44 C31.45,126.04 29.61,125.06 29.41,125.25 C29.00,125.67 42.12,163.91 43.31,165.76 ZM 44.00 175.00 L 44.00 199.00 L 212.00 199.00 L 212.00 175.00 ZM 239.00 86.00 C241.43,88.43 243.74,88.54 246.17,86.35 C249.72,83.13 247.48,77.00 242.76,77.00 C240.08,77.00 237.00,79.76 237.00,82.15 C237.00,83.17 237.90,84.90 239.00,86.00 ZM 10.07 85.37 C13.58,89.83 19.00,87.86 19.00,82.13 C19.00,76.97 13.83,75.17 10.00,79.00 C7.50,81.50 7.51,82.10 10.07,85.37 ZM 83.57 66.43 C86.10,68.96 90.84,68.45 92.18,65.50 C93.92,61.70 91.90,58.00 88.09,58.00 C82.84,58.00 80.15,63.01 83.57,66.43 ZM 161.20 66.80 C162.75,68.35 167.25,68.35 168.80,66.80 C169.46,66.14 170.00,64.43 170.00,63.00 C170.00,59.70 168.30,58.00 165.00,58.00 C161.70,58.00 160.00,59.70 160.00,63.00 C160.00,64.43 160.54,66.14 161.20,66.80 Z" fill="rgb(9,7,6)"/>
<path d="M 44.00 175.00 L 212.00 175.00 L 212.00 199.00 L 44.00 199.00 ZM 221.47 142.65 C227.26,125.63 227.65,122.10 223.72,125.79 C222.62,126.83 220.03,128.45 217.72,129.58 C220.11,128.37 223.13,126.31 224.75,124.75 C226.54,123.02 228.00,122.09 228.00,122.68 C228.00,123.23 225.13,131.98 221.47,142.65 ZM 213.24 166.50 L 213.23 166.50 L 217.78 153.36 Z" fill="rgb(230,165,64)"/>
<path d="M 43.31 165.76 C42.12,163.91 29.00,125.67 29.41,125.25 C29.61,125.06 31.45,126.04 33.50,127.44 C42.84,133.77 51.64,133.30 60.92,125.97 C68.40,120.06 77.97,105.19 83.08,91.52 C84.21,88.48 85.46,86.00 85.85,86.00 C86.24,86.00 88.51,89.94 90.89,94.75 C102.95,119.06 115.76,131.53 128.51,131.35 C135.30,131.26 140.62,128.34 147.17,121.10 C152.71,114.98 160.30,101.62 163.57,92.25 C164.57,89.36 165.70,87.00 166.06,87.00 C166.43,87.00 168.18,90.26 169.94,94.25 C183.04,123.86 200.74,137.27 217.00,129.92 C217.23,129.82 217.47,129.70 217.72,129.58 L 217.72 129.58 C220.03,128.45 222.62,126.83 223.72,125.79 C227.65,122.10 227.26,125.63 221.47,142.65 C221.19,143.47 220.91,144.29 220.62,145.13 L 217.78 153.36 L 217.77 153.36 L 213.23 166.50 L 128.68 166.76 C61.71,166.96 43.96,166.75 43.31,165.76 ZM 239.00 86.00 C237.90,84.90 237.00,83.17 237.00,82.15 C237.00,79.76 240.08,77.00 242.76,77.00 C247.48,77.00 249.72,83.13 246.17,86.35 C243.74,88.54 241.43,88.43 239.00,86.00 ZM 10.07 85.37 C7.51,82.10 7.50,81.50 10.00,79.00 C13.83,75.17 19.00,76.97 19.00,82.13 C19.00,87.86 13.58,89.83 10.07,85.37 ZM 83.57 66.43 C80.15,63.01 82.84,58.00 88.09,58.00 C91.90,58.00 93.92,61.70 92.18,65.50 C90.84,68.45 86.10,68.96 83.57,66.43 ZM 161.20 66.80 C160.54,66.14 160.00,64.43 160.00,63.00 C160.00,59.70 161.70,58.00 165.00,58.00 C168.30,58.00 170.00,59.70 170.00,63.00 C170.00,64.43 169.46,66.14 168.80,66.80 C167.25,68.35 162.75,68.35 161.20,66.80 Z" fill="rgb(251,217,58)"/>
<path d="M 0.00 170.75 L 0.01 85.50 L 2.02 88.81 C3.13,90.63 5.38,92.88 7.01,93.81 C8.86,94.86 10.50,97.00 11.39,99.50 C12.16,101.70 18.02,118.75 24.40,137.40 L 36.00 171.30 L 36.00 187.58 C36.00,201.04 36.27,204.13 37.57,205.43 C38.98,206.83 48.59,207.00 128.37,207.00 C196.44,207.00 217.88,206.72 218.80,205.80 C219.63,204.97 220.00,199.65 220.00,188.34 L 220.00 172.07 L 233.09 133.79 C245.51,97.47 246.34,95.42 249.25,93.96 C250.93,93.11 253.14,90.87 254.15,88.97 C255.96,85.60 256.00,87.32 256.00,170.77 L 256.00 256.00 L 128.00 256.00 L 0.00 256.00 L 0.00 170.75 ZM 42.68 122.98 C36.42,121.10 28.41,112.55 22.09,101.00 L 19.19 95.69 L 22.48 92.58 C28.94,86.49 28.93,77.78 22.44,72.08 C16.04,66.47 5.45,68.53 1.71,76.12 C0.13,79.33 0.04,77.52 0.02,39.75 L 0.00 0.00 L 128.00 0.00 L 256.00 0.00 L 256.00 39.25 C255.99,78.32 255.98,78.49 254.08,75.37 C251.33,70.86 248.16,69.00 243.23,69.00 C232.23,69.00 225.95,78.76 230.61,88.60 C231.50,90.47 232.51,92.01 232.86,92.03 C233.21,92.05 234.35,92.70 235.38,93.49 C237.18,94.85 237.06,95.23 232.62,102.36 C223.26,117.38 213.98,124.91 206.36,123.67 C200.61,122.74 194.49,118.42 189.48,111.76 C184.04,104.53 176.07,89.11 173.43,80.73 C171.64,75.00 171.64,74.94 173.69,73.50 C176.65,71.43 179.24,64.40 178.44,60.61 C177.43,55.83 173.42,51.21 169.18,49.94 C161.39,47.60 152.91,52.61 151.45,60.43 C150.61,64.90 153.95,72.57 157.44,74.16 C158.85,74.80 160.00,75.90 160.00,76.60 C160.00,78.94 154.81,92.38 150.77,100.50 C137.06,128.04 124.08,130.28 107.76,107.92 C104.59,103.56 95.78,87.14 93.43,81.18 L 91.72 76.85 L 95.22 73.97 C102.16,68.25 102.86,59.55 96.89,53.39 C91.13,47.45 82.89,47.95 77.05,54.60 C72.19,60.13 72.75,65.29 79.18,74.17 C80.15,75.52 79.85,77.22 77.55,83.17 C69.73,103.45 59.75,118.39 51.52,122.13 C47.06,124.15 46.70,124.19 42.68,122.98 Z" fill="rgb(254,254,254)"/>
</g>
</svg>