<svg xmlns="http://www.w3.org/2000/svg" viewBox="0 0 435 348" fill-rule="evenodd" clip-rule="evenodd"><path fill="#dfdfdf" fill-opacity="0.58" stroke="#dfdfdf" stroke-width="0.5" stroke-opacity="0.58" d="M251,7c0,0 1,1 1,1c0,0-1,0-1,0c0,0 0-1 0-1ZM157,51c1,0 1,0 1,0c0,0 0,1 0,1c0,0-1,0-1-1ZM163,86c1,0 1,1 1,1c0,0-1,0-1,0c0,0 0-1 0-1ZM299,91c1,1 1,2 1,4c-2-1-1-3-1-4ZM213,112c0,0 1,0 1,0c0,0 0,1 0,1c-1,0-1-1-1-1ZM238,117c0,0 1,0 1,0c0,0-1,1-1,1c0-1 0-1 0-1ZM44,199c1,0 1,1 1,1c0,0-1,0-1,0c0,0 0-1 0-1ZM137,206c0,0 1,0 1,0c0,0 0,1 0,1c0,0-1,0-1-1ZM150,228c0,0 1,0 1,0c0,0 0,1 0,1c0,0-1,0-1-1ZM338,256c0,0 1,0 1,1c0,0-1,0-1,0c0,0 0-1 0-1ZM152,292c3,0 5,0 8,0c0,1-1,1-2,1c-1,0-3,0-5,0c0,0-1,0-1-1ZM410,293c0,1-1,1-1,1c0,0 1-1 1-1ZM432,298c0,0 1,1 1,1c0,0-1,0-1,0c0,0 0-1 0-1ZM204,333c1,0 3,0 4,0c-1,1-3,1-4,0ZM374,334c0,0 1,0 1,0c0,0 0,1 0,1c0,0-1-1-1-1Z"/><path fill="#dadada" fill-opacity="0.671" stroke="#dadada" stroke-width="0.5" stroke-opacity="0.671" d="M206,10c1,0 1,1 1,1c0,0-1,0-1,0c0,0 0-1 0-1ZM291,44c0,0 1,0 1,1c0,0-1,0-1,0c0,0 0-1 0-1ZM160,84c0,0 1,1 1,1c0,0-1,0-1,0c0,0 0-1 0-1ZM181,105c1,1 1,3 0,4c0-1 0-3 0-4ZM319,156c1,0 1,1 1,1c0,0-1,0-1,0c0,0 0,0 0-1ZM128,187c0,0 1,0 1,0c0,0 0,1 0,1c-1,0-1-1-1-1ZM51,204c1,0 1,1 1,1c0,0-1,0-1,0c0,0 0-1 0-1ZM246,205c1,0 1,1 1,2c-1-1-1-1-1-2ZM9,234c0,0 0,1 0,1c0,0-1,0-1,0c0,0 1-1 1-1ZM27,252c0,0 1,0 1,0c0,0 0,1-1,1c0,0 0-1 0-1ZM367,329c0,0 1,0 1,0c0,0 0,1 0,1c0,0-1-1-1-1ZM219,334c0,0 1,0 1,0c0,0 0,0 0,1c0,0-1-1-1-1ZM381,339c0,0 1,0 1,0c0,0 0,1 0,1c0,0-1-1-1-1Z"/><path fill="#e2e2e2" fill-opacity="0.525" stroke="#e2e2e2" stroke-width="0.5" stroke-opacity="0.525" d="M289,73c0,0 0,0 1,0c0,1-1,1-1,1c0,0 0-1 0-1ZM193,102c0,0 1,0 1,0c0,0 0,0 0,1c0,0-1-1-1-1ZM101,115c0,0 1,0 1,1c0,0-1,0-1,0c0,0 0-1 0-1ZM208,146c0,0 1,1 1,1c0,0-1,0-1,0c0,0 0-1 0-1ZM53,205c1,0 1,1 1,1c0,0-1,0-1,0c0,0 0-1 0-1ZM31,206c0,0 0,1 0,1c0,0-1,0-1,0c0,0 1-1 1-1ZM247,220c1,0 1,0 2,1c0,0-1,0-1,0c0,0-1,0-1,0c0,0 0,0 0-1ZM322,246c0,0 1,1 1,1c0,0-1,0-1,0c0,0 0-1 0-1ZM45,252c0,0 1,0 1,0c0,0 0,1 0,1c0,0-1-1-1-1ZM10,255c0,0 1,0 1,0c0,0 0,1 0,1c-1,0-1-1-1-1ZM315,299c0,0 1,0 1,0c0,0 0,0 0,1c-1,0-1-1-1-1ZM335,309c0,0 1,0 1,0c0,0 0,1 0,1c0,0-1-1-1-1ZM342,313c0,0 1,0 1,0c0,0 0,0 0,1c-1,0-1-1-1-1ZM352,319c0,0 1,0 1,0c0,0 0,1 0,1c-1,0-1-1-1-1ZM191,325c1,0 1,0 1,0c0,0 0,1 0,1c0,0-1,0-1-1Z"/><path fill="#d5d5d5" fill-opacity="0.761" stroke="#d5d5d5" stroke-width="0.5" stroke-opacity="0.761" d="M154,83c-2,0-5,0-7,0c1-1 1-1 2-1c1,0 5,0 5,1ZM103,106c1,0 1,5 0,5c0-2 0-3 0-5ZM113,116c0,0 1,0 1,0c0,0 0,1-1,1c0,0 0-1 0-1ZM243,116c1,0 1,0 1,1c0,0-1-1-1-1Z"/><path fill="#e3e3e3" fill-opacity="0.502" stroke="#e3e3e3" stroke-width="0.5" stroke-opacity="0.502" d="M184,0c2,0 3,0 5,0c0,0 0,1 0,1c-2,0-3,0-5,0c0,0 0-1 0-1ZM215,113c0,0 1,0 1,0c0,0 0,0 0,1c0,0-1-1-1-1ZM313,129c0,0 1,0 1,0c0,0-1,1-1,1c0,0 0-1 0-1ZM56,207c0,0 1,1 1,1c0,0-1,0-1,0c0,0 0-1 0-1ZM378,283c0,0 1,1 1,1c0,0-1,0-1,0c0,0 0,0 0-1ZM391,292c1,0 1,1 1,1c0,0-1,0-1,0c0,0 0,0 0-1ZM431,297c0,0 1,1 1,1c0,0-1,0-1,0c0,0 0-1 0-1ZM420,320c0,0 1,0 1,0c0,0-1,1-1,1c0,0 0-1 0-1ZM194,329c1,0 1,0 1,0c0,0 0,0 0,1c-1,0-1,0-1-1Z"/><path fill="#e0e0e0" fill-opacity="0.561" stroke="#e0e0e0" stroke-width="0.5" stroke-opacity="0.561" d="M178,4c0,0 0,1 0,1c0,0-1,0-1,0c0-1 1-1 1-1ZM176,71c0,0 1,0 1,0c0,0 0,1 0,1c0,0-1-1-1-1ZM313,98c0,0 0,0 1,0c0,0-1,1-1,1c0,0 0-1 0-1ZM93,105c0,0 0,1 0,1c0,0 0,0-1,0c0,0 1-1 1-1ZM97,118c0,0 1,0 1,0c0,0 0,0 0,1c0,0-1-1-1-1ZM41,198c-1,0-1,0-2,0c1-1 1-1 2,0ZM358,323c0,0 1,0 1,0c0,0 0,1 0,1c0,0-1-1-1-1ZM361,325c0,0 1,0 1,0c0,0 0,1 0,1c0,0-1-1-1-1ZM237,327c1,0 1,1 0,1c0,0 0-1 0-1ZM197,331c0,0 1,0 1,0c0,0 0,1 0,1c0,0-1-1-1-1Z"/><path fill="#dcdcdc" fill-opacity="0.635" stroke="#dcdcdc" stroke-width="0.5" stroke-opacity="0.635" d="M257,11c0,0 1,0 1,1c0,0-1,0-1,0c0,0 0-1 0-1ZM210,13c1,0 1,1 1,1c0,0-1,0-1,0c0,0 0-1 0-1ZM168,24c0,1 0,1-1,1c0,0 1-1 1-1ZM289,82c0,0 1,0 1,1c-1,0-1,0-1,0c0,0 0-1 0-1ZM133,88c0,0 0,1 0,1c0,0-1,0-1,0c0,0 0-1 1-1ZM226,137c0,0 1,0 1,0c0,0 0,1-1,1c0,0 0-1 0-1ZM344,260c0,0 1,1 1,1c0,0-1,0-1,0c0,0 0,0 0-1ZM365,274c1,0 1,1 1,1c0,0-1,0-1,0c0,0 0,0 0-1ZM372,279c0,0 1,1 1,1c0,0-1,0-1,0c0,0 0,0 0-1ZM424,291c0,0 1,1 1,1c0,0-1,0-1,0c0,0 0,0 0-1Z"/><path fill="#dbdbdb" fill-opacity="0.651" stroke="#dbdbdb" stroke-width="0.5" stroke-opacity="0.651" d="M213,15c0,0 1,1 1,1c0,0-1,0-1,0c0,0 0-1 0-1ZM195,103c0,0 1,0 1,0c0,0 0,1 0,1c0,0-1-1-1-1ZM146,222c1,0 1,0 1,0c0,0 0,1 0,1c0,0-1,0-1-1ZM0,245c0,0 1,0 1,0c0,1 0,1 0,2c0,0-1,0-1,0c0-1 0-1 0-2ZM21,255c0,0 1,0 1,0c0,0-1,1-1,1c0,0 0-1 0-1ZM388,290c0,0 1,1 1,1c0,0-1,0-1,0c0,0 0,0 0-1ZM210,323c0,0 1,0 1,0c0,0 0,1 0,1c-1,0-1-1-1-1ZM217,333c0,0 1,0 1,0c0,0 0,1 0,1c-1,0-1-1-1-1Z"/><path fill="#11100f" stroke="#11100f" stroke-width="0.5" d="M181,2c4,0 7,0 11,0c0,1 1,1 2,1c0,1 1,1 2,1c0,1 1,1 2,1c0,1 0,1 1,1c0,1 1,1 2,1c0,1 1,1 1,1c0,1 1,1 2,1c0,1 0,1 1,1c0,0 0,1 1,1c0,0 1,0 1,0c0,1 0,1 1,1c0,1 0,1 1,1c0,1 1,1 1,1c0,1 1,1 2,1c0,1 1,1 1,1c0,1 1,1 2,1c0,1 1,1 1,1c0,1 1,1 2,1c0,1 0,1 1,1c1,2 4,2 4,0c0-1 0-2 0-3c1-1 1-1 1-2c1,0 1-1 1-1c0,0 1,0 1-1c3,0 5,0 8,0c1,0 1-3 1-4c1-1 2-2 3-3c2,0 3-1 4,0c3,0 6,1 9,2c0,1 1,1 2,1c0,1 1,1 1,1c0,1 1,1 2,1c0,1 0,1 1,1c0,1 1,1 2,1c1,1 2,2 3,2c0,1 0,1 1,1c0,1 1,1 1,1c1,1 1,2 3,2c0,1 0,1 1,1c0,1 0,1 1,1c0,1 0,1 1,1c0,1 0,1 1,1c0,1 0,1 1,1c0,1 0,1 1,1c0,1 1,1 1,1c0,0 0,1 1,1c0,1 0,1 1,1c0,1 0,1 1,1c0,1 0,1 1,1c0,1 0,1 1,1c0,1 0,1 1,1c0,1 0,1 1,1c0,1 0,1 1,1c0,1 0,1 1,1c0,1 0,1 1,1c0,1 0,1 1,1c0,1 0,1 1,1c0,1 0,1 1,1c0,2 1,2 2,3c0,1 0,1 1,1c0,1 0,1 1,1c0,0 0,1 0,1c0,1 1,1 1,1c0,1 0,2 1,2c0,1 0,2 1,2c0,2 0,4 0,6c0,3 0,5 0,7c0,0 0,1 0,1c-1,1-1,1-1,2c-1,0-1,1-1,2c-1,0-1,1-1,2c-1,0-1,1-1,2c-1,0-1,1-1,1c-1,1-1,1-1,2c-1,0-1,0-1,1c-1,1-1,2 0,3c0,1 0,2 1,2c0,1 0,1 1,1c0,0 0,1 0,1c0,1 1,1 1,1c0,1 0,2 1,2c0,1 0,2 1,2c0,1 0,2 1,2c0,1 0,2 1,2c0,1 0,1 1,2c0,0 0,1 0,1c0,1 0,2 1,2c0,1 0,1 1,2c0,0 0,1 0,1c0,1 0,2 1,3c0,1 0,4 2,3c0-2 0-4 1-5c0-3 0-6 0-8c-1-4-1-8-2-11c1-3 1-5 1-7c1,0 1,0 1-1c1,0 1,0 1-1c2,0 3,0 5,0c0,0 1,0 1,0c0,1 1,1 2,1c0,1 0,1 1,1c0,1 0,1 1,1c1,2 2,5 3,7c0,3 0,5 0,8c0,0 0,1 0,1c-1,1-1,2-1,4c-1,0-1,1-1,2c0,0 0,1 0,1c-1,0-1,1-1,2c-1,0-1,1-1,2c-1,0-1,1-1,2c-1,0-1,0-1,1c-1,0-1,1-1,2c-1,0-1,0-1,1c-1,0-1,0-1,1c-1,0-1,0-1,1c-1,0-1,0-1,1c-1,0-1,0-1,1c-3,0-3,3-3,4c1,3 1,6 1,9c2,3 2,1 3-1c2-1 3-3 3-6c1-1 1-2 1-3c1-1 1-2 1-4c1,0 1-1 1-2c1-1 2-2 2-3c1,0 2,0 2-1c2,0 4,0 6,0c0,1 0,1 1,1c0,1 0,1 1,1c1,3 0,7 0,10c-1,1-2,2-2,4c-1,0-1,1-1,2c-1,0-1,0-1,1c-1,0-1,0-1,1c-1,0-1,0-1,1c-1,0-1,0-1,1c-1,0-1,0-1,1c0,0-1,0-1,0c-1,0-1,0-1,1c-1,0-2,0-2,1c0,1 2,1 3,1c0,1 0,1 1,1c0,3 0,5 0,7c0,5 0,10 0,14c0,1 0,1 1,1c1,0 1,0 2,0c0,1 0,1 1,1c0,0 1,1 1,1c0,0 1,1 1,1c0,1 0,2 1,4c0,2 0,5 0,8c-1,0-1,1-1,2c0,0 0,1 0,1c-1,0-1,0-1,1c-1,0-1,0-1,1c-1,0-1,0-1,1c0,0-1,0-1,0c0,0-1,1-1,1c-1,0-1,0-1,0c-1,7-1,14-2,20c0,5 0,9 0,14c-1,0-1,0-1,1c-1,0-1,0-2,0c-3,0-5,0-8,0c-10,0-20,0-31,0c-1,0-2,0-3,1c-1,0-3,0-4,0c-4,0-9,0-13,0c0,0-1,0-1,0c0-1 0-1-1-1c0-1 0-3-1-4c0,0 0-1 0-1c0-1 0-2-1-2c0,0-1,0-1,0c-2,0-3,0-4,1c0,0-1,0-1,0c-2,0-4,0-5,1c-1,0-1,1 0,1c0,1 0,2 1,2c0,0 0,1 1,1c0,0 0,1 0,1c0,0 0,1 1,1c0,0 0,1 0,1c0,1 0,1 1,1c0,0 0,1 0,1c0,1 0,2 1,2c0,1 0,1 1,1c0,1 2,1 3,1c1,1 2,1 3,1c0,0 1,0 1,0c1,1 2,1 4,1c0,0 1,0 1,0c2,1 4,1 5,2c2,0 4,0 5,0c1,1 4,1 5,1c1,1 4,1 5,1c2,1 4,2 7,2c0,1 1,1 2,1c0,0 1,0 1,0c0,1 1,1 2,1c0,0 1,0 1,0c1,1 2,1 3,1c1,1 2,1 3,1c1,1 3,2 5,2c1,1 3,2 5,2c0,1 1,1 2,1c0,1 1,1 2,1c0,1 1,1 2,1c0,1 1,1 2,1c0,1 1,1 2,1c0,1 1,1 2,1c1,1 2,2 3,2c0,1 1,1 2,1c0,1 1,1 2,1c0,1 0,1 1,1c0,1 1,1 2,1c1,1 2,2 3,2c0,1 1,1 2,1c0,1 1,1 2,1c0,1 0,1 1,1c1,1 2,2 3,2c0,1 1,1 2,1c0,1 0,1 1,1c0,1 1,1 2,1c0,1 0,1 1,1c0,0 1,0 1,0c0,1 0,1 1,1c0,1 0,1 1,1c0,0 1,0 1,0c0,1 0,1 1,1c0,1 1,1 1,1c1,1 1,1 2,1c0,1 1,1 2,1c0,1 0,1 1,1c0,1 1,1 2,1c0,1 0,1 1,1c0,1 1,1 2,1c0,1 0,1 1,1c1,1 1,2 3,2c1,1 2,2 3,2c0,1 1,1 1,1c0,1 1,1 2,1c0,1 0,1 1,1c0,0 0,1 1,1c0,0 1,0 1,0c0,1 0,1 1,1c0,1 0,1 1,1c0,1 1,1 2,1c0,1 0,1 1,1c0,1 1,1 2,1c0,1 0,1 1,1c0,1 1,1 2,1c0,1 0,1 1,1c1,1 2,2 3,2c0,1 0,1 1,1c0,1 1,1 2,1c0,1 0,1 1,1c0,1 1,1 2,1c0,1 0,1 1,1c0,1 1,1 2,1c0,1 1,1 1,1c0,1 1,1 2,1c0,1 1,1 2,1c2,1 4,1 6,0c1,0 2,0 2-1c1,0 2,0 2-1c2,0 3-1 4-2c1,0 2,0 2-1c0,0 1,0 1,0c3-1 6-1 9,0c0,0 1,0 1,0c1,2 3,3 5,5c0,0 1,1 1,1c0,0 1,1 1,1c0,0 1,1 1,1c0,0 1,1 1,1c0,0 1,1 1,1c0,0 0,1 0,1c-3,2-5,4-6,7c-1,0-1,0-1,1c-1,0-1,0-1,1c-1,0-1,0-1,1c-1,1-2,2-2,3c-1,0-1,0-1,1c-1,0-1,0-1,1c-1,0-1,0-1,1c-1,0-1,1-1,1c-3,2-6,5-8,9c-1,0-2,1-2,2c-1,0-1,0-1,1c-1,0-1,0-1,1c-1,0-1,0-1,1c-1,0-1,0-1,1c-1,0-1,0-1,1c-1,0-1,0-1,1c-1,0-1,0-1,1c-1,0-1,0-1,1c-1,0-1,0-1,1c-1,0-1,0-1,1c-1,0-1,0-1,1c-1,0-1,0-1,1c-1,0-2,1-2,2c-1,0-1,0-1,1c0,0-1,0-1,0c-1,0-3,0-4,0c-1-1-2-2-3-3c0,0-1,0-1,0c0-1 0-1-1-1c0-1 0-1-1-1c0-1 0-1-1-1c0,0 0-1-1-1c0,0-1,0-1,0c0-1 0-1-1-1c-1-1-2-2-3-2c0-1 0-1-1-1c0-1-1-1-1-1c0-1-1-1-2-1c0-1-1-1-1-1c0-1-1-1-2-1c0-1 0-1-1-1c0,0 0-1-1-1c0,0-1,0-1,0c0-1 0-1-1-1c-1-1-2-2-3-2c0-1-1-1-1-1c0-1-1-1-2-1c0-1-1-1-1-1c0-1-1-1-2-1c0-1-1-1-1-1c0-1-1-1-2-1c0-1 0-1-1-1c0-1-1-1-2-1c0-1-1-1-2-1c0-1 0-1-1-1c0-1-1-1-2-1c-1-1-2-2-3-2c-1-1-1-1-2-1c0-1-1-1-2-1c-1-1-2-2-3-2c0-1-1-1-2-1c0-1-1-1-2-1c0-1-1-1-2-1c0-1-1-1-2-1c0-1-1-1-2-1c0-1-1-1-2-1c0-1-1-1-2-1c0-1-1-1-2-1c0-1-1-1-2-1c0-1-1-1-2-1c0,0-1,0-1,0c0-2-5-3-7-3c-1-1-2-1-3-1c-1-1-2-1-3-1c-1-1-3-2-5-2c-2-1-5-1-8-1c0,0-1,0-1,0c0-2-8-2-9-2c0,0-1,0-1,0c0-1 0-1-1-1c-3,0-6-2-10-1c0,0-1,0-1,0c0-2-4-1-5-1c-1-1-5-1-7-2c-2,0-4,0-6,0c-1-1-4-1-5-2c-2,0-4,0-6,0c-1-1-3-1-5-1c-5-2-9-3-14-4c-2-1-2,0-3,1c0,0-1,0-1,1c0,0-1,0-1,0c-1,0-1,0-1,1c0,0-1,0-1,0c-1,0-2,0-2,1c-2,0-4,1-5,2c-1,0-9,2-9,3c0,0-1,0-1,0c-2,0-3,0-4,1c-1,0-3,0-3,1c0,0-1,0-1,0c-1,0-2,0-3,0c-2,1-4,1-6,2c-1,0-4,0-4,1c0,0-1,0-1,0c-7,0-14,0-20,0c-6,0-12,0-17,0c-4-1-8-1-12-2c0,0-1,0-2,0c0,0-1,0-1,0c0-1-5-2-6-2c-1-1-2-1-3-2c-2-1-4-1-6-1c0-1-1-1-2-1c0,0-1,0-1,0c0-1-1-1-2-1c0-1-1-1-2-1c0,0-1,0-1,0c0-2-5-3-7-3c0-1-1-1-2-1c0-1-1-1-2-1c-1-1-2-2-3-2c0-1-1-1-2-1c0-1 0-1-1-1c0-1-1-1-2-1c-1-1-2-2-3-2c0-1-1-1-2-1c-1-1-2-2-3-2c0-1-1-1-2-1c-1-1-1-2-3-2c0-1-1-1-2-1c0-1-1-1-2-1c0-1-1-1-2-1c0-1 0-1-1-1c0-1-1-1-2-1c0-1-1-1-2-1c0-1 0-1-1-1c0-1-1-1-2-1c0-1-1-1-2-1c0-1-1-1-2-1c0-1-1-1-1-1c-1-1-1-1-2-1c0-1-1-1-2-1c0-1-1-1-2-1c0,0-1,0-1,0c-1-1-1-1-2-1c-1,0-1,0-2,0c0,0-1,0-1,0c-1,0-2,0-2,1c-1,0-2,0-2,1c-1,0-1,0-1,1c-1,0-1,0-1,1c0,0-1,0-1,0c-1,0-1,1-1,1c-1,0-2,0-2,1c-1,0-2,0-2,1c0,0-1,0-1,0c-1,0-2,0-2,1c-2,0-4,0-6,0c0-1-1-1-2-1c0,0-1,0-1,0c0-1 0-1-1-1c0-1 0-1-1-1c0-1-1-1-2-1c0-1 0-1-1-1c0-1 0-1-1-1c0-1 0-1-1-1c0-1 0-1-1-1c0-1 0-1-1-1c0-1 0-1 0-2c1-1 2-2 2-3c1,0 1,0 1-1c1,0 1,0 1-1c1-1 2-2 2-3c1,0 1,0 1-1c0,0 1,0 1-1c0,0 0-1 0-1c1,0 1,0 1-1c1,0 1-1 1-2c1,0 1,0 1-1c0,0 1,0 1-1c0,0 0-1 0-1c1,0 1,0 1-1c1,0 1-1 1-1c1-1 2-2 2-3c1,0 1,0 1-1c1,0 1,0 1-1c1,0 1,0 1-1c1-1 2-1 2-3c1,0 1,0 1-1c1,0 1,0 1-1c1,0 1,0 1-1c2-1 3-2 3-4c1,0 1,0 1-1c1,0 1,0 1-1c1,0 1-1 1-1c1-1 2-2 2-3c1,0 1-1 1-1c1,0 1,0 1-1c1,0 1,0 1-1c1-1 2-1 2-3c0,0 1,0 1,0c1,0 1,0 2,0c0,0 1,0 1,0c0,1 0,1 1,1c0,0 0,1 1,1c0,0 1,0 1,0c0,1 0,1 1,1c0,1 0,1 1,1c0,0 0,1 1,1c0,0 1,0 1,0c0,1 0,1 1,1c0,0 1,1 1,1c0,0 1,0 1,0c0,0 0,1 1,1c0,0 1,0 1,0c0,1 0,1 1,1c0,0 0,1 1,1c0,0 1,0 1,0c0,1 0,1 1,1c0,1 1,1 2,1c0,1 1,1 2,1c0,1 1,1 1,1c0,1 1,1 2,1c0,1 1,1 2,1c0,0 0,1 1,1c0,0 1,0 1,0c0,1 1,1 1,1c0,1 1,1 2,1c0,1 1,1 2,1c0,1 1,1 2,1c0,1 1,1 1,1c0,1 1,1 2,1c0,1 1,1 2,1c0,1 1,1 2,1c0,1 1,1 2,1c0,1 1,1 2,1c0,1 1,1 2,1c1,1 1,1 2,1c1,2 3,2 5,2c0,1 1,1 2,1c1,1 2,1 4,2c2,0 4,1 7,1c4,2 8,3 12,4c3,0 7,0 10,0c3,0 7,0 10,0c1,0 4,1 5-1c1,0 4,0 5-1c2,0 3,0 4-1c0-1 0-1-1-2c0,0 0-1-1-1c0-1 0-1-1-1c0-1 0-1-1-1c0,0 0-1 0-1c0-1-1-1-1-1c0-1 0-1-1-1c0,0 0-1 0-1c0,0-1-1-1-1c0-1 0-1-1-1c0,0 0-1 0-1c0-1 0-1-1-1c0-1 0-1-1-1c0,0 0-1 0-1c0-1 0-1-1-1c0-1 0-1-1-1c0,0 0-1 0-1c0-1-1-1-1-1c0-1 0-2-1-2c0-1 0-2-1-2c0-1 0-2-1-2c0-1 0-2-1-2c0,0 0-1 0-1c0-1 0-1-1-1c0,0 0-1 0-1c0-1 0-1-1-1c0,0 0-1 0-1c0-1 0-2-1-2c0-1 0-2-1-2c0-1 0-2-1-2c0-1 0-2-1-2c0-1 0-2-1-2c0-1 0-2-1-2c0-1 0-2-1-3c0-1 0-2-1-2c0-2-1-4-2-5c0-2 0-5 0-7c1-2 1-4 1-7c1-1 1-2 1-4c1,0 1-1 1-2c1,0 1-1 1-2c1,0 1,0 1-1c0,0 1,0 1-1c0,0 0-1 0-1c1,0 1,0 1-1c1,0 1-1 1-1c0,0 1-1 1-1c0,0 1-1 1-1c0,0 1,0 1-1c1,0 1,0 1-1c1,0 1,0 1-1c1,0 1,0 1-1c0,0 1,0 1,0c1,0 1-1 1-1c1,0 2,0 2-1c1,0 1,0 1-1c0,0 1,0 1,0c2,0 2-2 1-2c0-1 0-1-1-1c0,0-1-1-1-1c0,0-1-1-1-1c0,0 0-1-1-1c0-1 0-1-1-1c0-1 0-2-1-2c0-1 0-1-1-1c0-1 0-1-1-1c0,0 0-1 0-1c0-1 0-1-1-1c0,0 0-1 0-1c0-1 0-1-1-1c0-1 0-1-1-2c-2,0-4,0-7,0c0-1 0-1-1-1c0-1-1-1-1-1c0-1 0-1-1-1c0-1 0-2-1-2c0-1 0-2 0-4c0-1 1-2 1-3c0,0 1-1 1-1c0,0 1-1 1-1c2-1 1-4 0-5c0-1 0-2-1-3c0-2 0-5 0-7c1-1 1-2 1-3c1,0 1-1 1-2c1-1 2-2 2-3c1,0 1,0 1-1c0,0 1,0 1,0c1,0 1-1 1-1c1,0 1,0 1-1c1,0 2,0 2-1c1,0 2,0 2-1c1,0 2,0 2-1c0,0 1,0 1,0c2,0 4,0 5-1c2,0 5,0 7,0c0,0 1,0 1,0c0,1 4,2 5,2c0,0 1,0 1,0c0,1 0,1 1,1c0,1 0,1 1,1c0,0 1,0 1,0c0,1 0,1 1,1c0,1 0,1 1,1c0,0 0,1 0,1c0,1 1,1 1,1c0,1 0,1 1,1c0,0 0,1 0,1c0,1 1,1 1,1c0,1 0,2 1,2c0,1 0,1 1,2c0,3 3,2 5,2c0,0 1,0 1,0c0,1 0,1 1,1c0,0 1,0 1,0c0,0 0,1 0,1c0,1 1,1 1,1c0,1 0,2 1,2c0,1 0,3 0,4c-1,1-1,2-1,3c0,0-1,1-1,1c0,0 0,1 0,1c-1,0-3,1-3,2c-1,1-1,2 0,2c0,2 0,3 1,4c0,1 0,2 0,3c0,3 0,7 0,10c0,0 0,1 0,1c-1,1-1,1-1,2c-1,0-1,2 0,2c0,0 1,0 1,0c2,1 3,1 5,1c1,0 1,0 2,0c1,1 2,1 4,1c0,0 1,0 1,0c1,1 2,1 3,1c1,0 1,0 2,0c1,1 1,1 2,1c1,0 1,0 2,0c1,1 1,1 2,1c0,0 1,0 1,0c1,1 2,1 3,1c0,0 1,0 1,0c1,1 2,1 3,1c0,0 1,0 1,0c1,0 1,0 2,0c0,1 1,1 2,1c1,0 1,0 2,0c1,1 2,1 3,1c1,0 1,0 2,0c1,1 2,1 4,1c1,0 2,0 3,0c2,1 3,1 5,1c1,0 1,0 2,0c2,1 3,1 5,1c1-1 1-3 0-4c0-1 0-1 0-2c0-1 0-4-1-5c0,0 0-1 0-1c0-2 0-5 0-7c1,0 2-1 1-2c-1,0-1,0-2,1c-1,0-1,0-1,0c-1,0-2,0-2,1c-1,0-1,0-1,1c0,0-1,0-1,0c-1,0-2,0-2,1c-1,0-1,0-1,1c0,0-1,0-1,0c0,0-1,1-1,1c0,0-1,0-1,0c-1,0-1,1-1,1c-1,0-1,0-2,1c0,0-1,0-1,0c-1,0-2,0-3,0c0,0-1,0-1,0c0-1-1-1-1-1c0,0-1,0-1,0c0-1 0-1-1-1c0-1-1-1-1-1c0,0 0-1-1-1c0,0 0-1 0-1c0,0 0-1-1-1c0-1 0-3 0-4c1,0 1-1 1-1c0,0 1-1 1-1c0,0 0-1 1-1c0,0 1,0 1-1c1,0 2,0 2-1c0,0 1,0 1,0c1,0 2,0 3-1c0,0 1,0 1,0c1,0 2,0 3-1c1,0 2,0 3-1c2,0 4,0 6,0c2,0 5,0 8,0c0,0 1,0 1,0c0,1 0,1 1,1c0,0 1,0 1,0c1,1 1,1 2,1c0-1 0-2-1-2c0,0 0-1 0-1c0-1-1-1-1-1c0-1 0-1-1-1c0-1 0-1-1-1c0-1 0-1-1-1c0-1-1-1-1,0c0,0-1,0-1,0c-1,0-1,0-2,1c0,0-1,0-1,0c-2,0-3,0-5,0c-2,0-4,0-6,0c0,0-1,0-1,0c0-1-2-1-3-1c0-1-1-1-2-1c-1-1-2-1-3-1c0-1-1-1-2-1c0,0-1,0-1,0c0-1 0-1-1-1c0,0-1,0-1,0c0-1 0-1-1-1c0,0-1,0-1,0c0-1-1-1-2-1c0-1-1-1-2-1c0-1-1-1-2-1c0-1-1-1-2-1c0-1-1-1-2-1c0-1-1-1-2-1c0-1-1-1-2-1c0,0 0-1-1-1c0,0-1,0-1,0c0,0-1-1-1-1c-1-1-1-1-2-1c0-1-1-1-2-1c0-1-1-1-1-1c0-1-1-1-2-1c0,0 0-1-1-1c0,0-1,0-1,0c-1-1-2-2-3-2c0-1 0-1-1-1c0-1 0-1-1-1c0,0 0-1-1-1c0,0 0-1 0-1c0-2 0-3 0-5c0,0 0-1 0-1c1,0 1,0 1-1c1,0 1-1 1-2c1,0 2,0 2-1c1,0 1-2 1-3c2-1-1-3-2-3c0-1-1-1-1-1c0-1-1-1-2-1c0-1 0-1-1-1c0-1-1-1-1-1c-1-1-2-2-3-2c0-1 0-1-1-1c0-1 0-1-1-1c0-1-1-1-2-2c0,0 0,0-1,0c0-1 0-1-1-1c0-1 0-1-1-1c0-1 0-1-1-1c0-1 0-1-1-1c0-1 0-1-1-1c0-1-1-2-2-3c0-1 0-1-1-1c0-1 0-1-1-1c0-1 0-2-1-2c0-1 0-1-1-1c0,0 0-1 0-1c0,0 0-1-1-1c0,0 0-1 0-1c0-1 0-2 0-3c1,0 1-1 1-2c0,0 0-1 0-1c1,0 1,0 1-1c1,0 1,0 1-1c1,0 1,0 1-1c2,0 3,0 4,0c1-2 1-3-1-3c0-1 0-1 0-1c0-1-1-1-1-1c0-2 0-4 0-6c1,0 1-1 1-2c1,0 1,0 1-1c1,0 2,0 3,0c1-1 1-2 0-3c0-1 0-1-1-1c0,0 0-1 0-1c0-1-1-1-1-1c0-1 0-2-1-2c0,0 0-1 0-1c0-1 0-1 0-2c0-1 0-1 0-2c1,0 1,0 1-1c0,0 1,0 1-1c1,0 2,0 2-1c1,0 3,0 5,0c3,0 3-1 3-4c0,0 1,0 1-1c0,0 0-1 0-1c1,0 2-1 3-2ZM160,46c2,9 20,23 28,28c0,0 1,0 1,0c0-1 0-2 0-4c1-6 6-2 8-4c-1-4 2-8 6-8c11,3 21,12 30,18c4,2 9,10 14,9c4-2 4-4 1-6c-9-5-49-33-39-44c1-1 4-2 5-4c-1-2 0-6 1-8c-1-2-2-3-3-3c-8-5-18-15-26-16c-6,0-5,5-5,9c0,2-2,1-4,1c-2-1-6-1-8,0c-1,6 4,8 5,13c-1,1-8,1-7,4c0,1 0,2 0,3c3,3 4,6 6,8c0,1 0,1-1,1c-2,0-5,0-7,0c-3,0-4,0-5,3ZM211,37c0,1 0,3 0,4c7,15 30,30 45,38c18,9 39-6 35-26c-4-11-39-46-51-44c-2,0-1,3-1,5c1,1 1,3 2,4c0,0-1,2 0,2c-5,0-7-5-13-4c-2,1 0,5 0,6c1,2 3,4 3,6c-1,0-1,0-2-1c-5-2-6-3-11-2c-3,2 2,9 3,11c0,1 0,1 0,2c-2-1-4-1-7-1c-1,0-2,0-3,0ZM182,86c0,1 0,2 0,3c5,7 32,19 41,23c8,4 26,3 26-10c-2-16-29-31-42-39c-1,0-8-2-7,0c2,6 5,7 9,11c2,6-12-3-14-4c-2,0-2,0-2,2c2,3 4,5 6,7c1,1 1,2 0,2c-4,1-8-4-11-3c-1,1 2,4 2,4c1,1 1,2 1,3c-2,0-4,0-6,0c-1,0-2,0-3,1ZM303,81c1,6 2,20 0,25c1,1 1,1 2,0c5-6 11-26 0-30c-2,0-1,4-2,5ZM281,82c10,15 14,30 15,48c1,1 1,1 2-1c1-17-5-34-15-48c-1-1-1,0-2,1ZM253,84c14,14 19,25 24,45c1,1 2,2 2,0c-2-17-10-35-24-45c-1-1-1-1-2,0ZM263,85c0,0 0,1 0,1c12,12 17,27 21,43c2,2 4,2 7,1c5-5-7-44-14-46c-5,1-9,1-14,1ZM141,88c3,2 13,1 15,0c-1-3-14-2-15,0ZM248,89c2,8 5,10 3,19c0,3 10,15 11,20c1,1 2,2 4,2c2,0 5,0 6-1c1-9-13-41-24-41c1,0 0,1 0,1ZM134,112c1,6 8,19 12,24c9,11 30,10 28-6c-1-8-5-39-14-39c-7,0-13,2-19,0c-1,0-1,1-1,1c0,9-2,12-6,20ZM130,101c0,1 0,7 2,6c4-4 5-10 4-15c-3-2-6,7-6,9ZM151,97c1-1 1-1 1-2c0,1 1,1 2,2c1,2 14,20 10,22c-4,1-7,0-11-2c2-1 5-1 7-1c0,0 1-1 1-1c-3-4-5-9-8-13c0-2-1-4-2-5ZM161,103c1-2 1-2 1,0c-1,3 0,1-1,0ZM96,103c1,0 3,0 4,0c3,3 2,5 2,9c-1,0-1,0-1,1c-1,0-1,0-1,1c-1,0-1,1 0,1c0,1 0,1 1,1c0,1 5,2 5,0c0,0 1,0 1,0c1,0 2,0 2-1c1,0 1,0 1-1c2,0 2-1 3-2c1,0 3,0 3,2c-1,0-1,0-1,1c-1,0-1,0-1,1c0,0-1,0-1,0c0,0-1,1-1,1c-1,0-1,0-1,1c0,0-1,0-1,0c-1,0-1,0-2,1c-1,0-2,0-4,0c-1,0-2,0-4,0c0-1-1-1-2-1c0,0-1,0-1,0c0-1 0-1-1-1c0-1 0-1-1-1c-1-1-2-1-4-1c0-1-1-1-2-1c0-1 0-1-1-1c0-1-1-1-1-1c-1-1-2-2-3-3c0,0 0,0 0-1c1,0 1,0 1-1c1,0 1,0 2,0c0,1 0,1 1,1c0,1 0,1 1,1c0,1 1,1 1,1c1,2 2,2 3-1c0-1 0-2 0-3c1,0 1-1 1-2c1,0 2,0 2-1ZM173,104c1,1 1,11 4,7c1-3 1-6-2-8c-1,0-2,0-2,1ZM96,108c0,1 1,2 2,3c1-2 1-3 0-5c-1,1-1,1-2,2ZM306,128c0,1 1,1 1,1c8-3 17-13 10-20c-2,0-3,1-4,3c-2,6-3,11-7,16ZM247,113c1,2 7,12 9,16c1,2 3,1 2-1c-1-3-8-17-11-15ZM128,119c0,2 1,4 4,5c4,1 1-3 1-5c-4-5-3-4-5,0ZM152,122c2,1 4,2 7,2c0,0 1,0 2,0c1-1 2-1 3-1c0,1 0,1-1,2c-2,3-5,4-8,2c-1-2-2-3-3-5ZM216,131c0,3 2,4 5,5c10-4 16-10 27-8c2,0 0-1-1-2c-7-4-27-2-31,5ZM241,137c2,11 4,23 5,34c1,3 1,5 2,8c2-2 3-3 4-4c4-5 0-19 1-26c0-2 1-4 3-4c15,0 30-2 45-1c6,1 0,10 7,11c5,0 2-15 3-18c0-1-1-2-3-3c-21-1-42-1-62-1c-3,0-5,1-5,4ZM150,146c3,5 11,24 17,23c5-1 9-2 13-2c2-1 4-1 6-2c0-2-1-3-1-5c-3-5-6-9-8-14c-4-6-10,1-16,1c-3,0-6-1-8-2c-2,0-2,0-3,1ZM163,172c-4-3-13-19-16-23c-2-1-3,0-3,2c4,6 12,20 19,23c13,6 17,4 30,1c6-2 7,3 9,6c2,2 10,1 13,1c1,0 1-1 1-2c-2-3-5-7-7-10c-1-3-5-2-8-2c-4-1-13-17-16-21c-1-1-2-2-3-2c-1,0-1,1-1,1c4,6 7,12 10,18c0,1 1,2 1,3c-2,1-3,2-4,2c-5,0-21,5-25,3ZM190,147c2,4 8,15 12,17c1,0 2,0 3,0c-1,0 0-1 0-2c-1-1-2-2-2-4c0-2 0-3 2-2c2,3 13,24 18,18c1-4 0-14-1-18c0-2-1-3-3-3c-9-2-19-4-28-6c0-1-1,0-1,0ZM250,207c1,2 3,3 5,3c15,0 31-1 47,0c3,0 6,0 6-4c1-9 1-18 2-26c0-1 0-2-1-3c-1,0-3-1-5,0c-1,6 0,20-3,23c-4-4 1-23-3-26c-8-3-13-7-10-17c3-6 17-1 12-9c-5-4-31,1-39,0c-3,1-4,0-4,4c0,3 0,11 1,13c4,1 9,1 8,6c-1,2-1,3-2,4c0,1 1,1 1,1c9-2 18-5 25,2c9,15-16,21-25,23c-1,1-2,2-3,3c-1,0-3-1-4-1c-4,0-6,0-8,4ZM130,171c0,18 18,29 34,31c2,1 4,0 4-3c1-5 2-10 4-15c1-2 0-4-3-5c-15-3-18-12-26-24c-1-1-3-3-5-1c-5,5-8,10-8,17ZM226,158c1,5 1,10 1,14c0,2 1,3 3,4c3,0 6,0 9,0c3,0 4-2 4-4c-1-5-2-9-2-13c0-2-1-3-2-3c-4-1-8-1-12-1c-1,0-1,2-1,3ZM306,162c-4,0-8-1-13-2c-1,0-1,1 0,2c1,0 3,0 4,0c3,1 5,1 8,2c1,2-2,2-3,2c-3-1-6-1-10-1c0,0 0,1 0,1c3,4 13,7 18,8c9,3 10-15 4-16c-7-1-13-1-19-2c-1,1-1,1 0,2c3,0 6,0 9,1c1,1 3,2 2,3ZM254,178c6,1 8-5 7-10c-3,3-5,6-7,10ZM277,194c2-1 3-1 5-2c2-1 3-2 5-3c-1-1-2-1-2-1c-3,1-6,2-9,3c-2,0-3-1-2-3c5-1 9-3 13-4c1-1 1-2 0-2c-4,2-9,3-13,4c-2,0-3-1-1-3c4-1 8-2 12-4c0,0 0-1 0-1c-3-1-6-2-9-1c-9,2-18,4-27,6c-1,0-1,1-1,2c1,2 1,4 2,7c0,2-1,5 0,7c0,3 24-4 27-5ZM186,179c0,2 11,3 11,2c-1-5-8-3-11-2ZM220,179c0,1 0,2 1,2c4,2 18-1 23-1c-8-1-16,0-24-1ZM171,203c2,4 43,2 49,2c6-1 11-1 16-2c2,0 3-1 3-3c-1-2-2-5-2-8c0-1 1-7-1-8c-4-1-11,1-16,1c-11,1-22,0-32-1c-4-1-7-1-10-2c-2,0-2,1-3,3c-1,5-3,12-4,18ZM241,185c1,2 1,1 3,0c0-1 0-1-1-2c-1,0-2,1-2,2ZM240,193c3,6 9-1 4-4c-2,0-3,1-4,4ZM324,292c1,0 1-1 1-2c5-7 10-15 15-23c1-2 1-4-2-5c-21-15-43-27-69-33c-11-2-28-5-39-8c0,0-1-1-1-1c2-2 3-2 6-2c0,0 0,0 1,0c-2-3-3-6-5-9c-2-3-16,0-21,0c-22,0-55,2-72-15c-1-1-1-1-2,0c3,5 6,11 8,17c26,43 57,62 106,70c22,4 47,6 68,15c4,0 4-1 6-4ZM243,200c0,2 1,2 2,1c1-2-1-3-2-1ZM6,247c9-8 18-22 26-31c3-4 6-7 9-11c0-1 1-3-2-2c-6,6-32,36-33,44ZM11,250c6,11 19-13 33-3c10,5 49,31 57,30c2,0 4-9 5-11c3-7-16-4-13-15c3-6 11-2 16-1c0,0 0,0 1-1c1-2 5-10 1-11c-24-6-42-18-63-31c-1-1-2-1-4,0c-8,10-28,33-33,43ZM121,285c1,1 3,1 4,1c26,5 61,1 86-10c0-1 0-1-1-1c-21-10-35-18-50-36c-4-3-14,2-20,2c-6,0-13,0-20-1c-4,0-4,7-6,10c-2,9-5,19-7,28c0,2 1,3 2,3c4,2 8,3 12,4ZM96,253c2,5 14,10 13,2c0-3-7-4-10-4c-2,0-1,2-3,2ZM325,298c0,0 0,1 1,1c9,5 18,10 28,16c5,4 29,22 33,23c5-2 30-29 35-35c2-2 6-6 2-7c-6-5-17,8-27,4c-15-7-31-21-46-30c-1,0-5-4-7-2c-9,7-1,11 4,17c2,6-3,12-9,9c-2-1-6-5-8-5c-3,2-5,6-6,9ZM334,283c1,2 2,4 4,5c1,1 5,3 6,2c1-4-3-7-6-10c-2-2-4,2-4,3ZM391,341c1,3 4-1 5-1c11-11 25-25 34-37c0-1 0-2-2-1c-11,12-23,24-34,35c-1,2-2,3-3,4ZM215,312c2,0 4,0 6,0c0,1 1,1 1,1c0,0 1,1 1,1c0,0 0,1 1,1c0,2 0,3 0,5c-1,0-1,1-1,2c-1,0-1,1-1,2c0,0 0,1 0,1c-1,0-1,0-1,1c-1,0-1,0-1,1c-1,0-1,0-1,1c-1,1-1,1 0,2c0,1 1,1 2,1c3,2 5,2 8,0c1,0 1,0 1-1c1,0 1,0 1-1c1,0 1,0 1-1c1,0 1,0 1-1c1,0 3,0 4,0c0,0 0,1 0,1c0,0 0,1 0,1c-1,0-1,0-1,1c-1,0-1,0-1,1c-1,0-1,0-1,1c-1,0-1,0-1,1c-1,0-2,0-2,1c-4,0-7,0-11,0c0,0-1,0-1,0c0-1 0-1-1-1c0,0-1,0-1,0c0-1 0-1-1-1c-1-2-5,0-6,0c-4,0-7,0-10,0c0-1-1-1-2-1c0,0-1,0-1,0c0-1 0-1-1-1c0-1-1-1-1-1c0,0-1-1-1-1c0,0-1-1-1-1c0-1 0-1-1-1c0,0 0-1 0-1c0,0 0-1-1-1c0,0 0-1 0-1c0-3 1-4 3-3c0,1 0,1 1,2c0,0 0,1 0,1c0,1 0,1 1,1c0,0 0,1 0,1c0,0 0,1 1,1c0,1 0,1 1,1c0,0 0,1 1,1c0,0 1,0 1,0c0,1 1,1 2,1c3,1 5,1 8,0c1,0 1,0 2-1c0,0 0-1 0-1c0-1 0-1-1-2c0,0 0-1 0-1c0,0 0-1 0-1c0-2 0-3 0-5c0,0 0-1 0-1c1,0 1-1 1-1c0,0 0-1 0-1c1,0 1-1 1-1c1,0 1-1 1-1c1,0 1,0 1-1ZM215,320c1,7 2,5 5,0c0-2 0-3-1-5c-3,1-4,2-4,5Z"/><path fill="#abaac7" d="M247,113c3-2 10,12 11,15c1,2-1,3-2,1c-2-4-8-14-9-16Z"/><path fill="#f5f5f5" stroke="#f5f5f5" stroke-width="0.5" d="M130,101c0-2 3-11 6-9c1,5 0,11-4,15c-2,1-2-5-2-6ZM96,108c1-1 1-1 2-2c1,2 1,3 0,5c-1-1-2-2-2-3ZM240,193c1-3 2-4 4-4c5,3-1,10-4,4Z"/><path fill="#aeadca" d="M253,84c1-1 1-1 2,0c14,10 22,28 24,45c0,2-1,1-2,0c-5-20-10-31-24-45Z"/><path fill="#9b9ab4" d="M281,82c1-1 1-2 2-1c10,14 16,31 15,48c-1,2-1,2-2,1c-1-18-5-33-15-48Z"/><path fill="#b1b0cd" stroke="#b1b0cd" stroke-width="0.5" d="M303,81c1-1 0-5 2-5c11,4 5,24 0,30c-1,1-1,1-2,0c2-5 1-19 0-25ZM306,128c4-5 5-10 7-16c1-2 2-3 4-3c7,7-2,17-10,20c0,0-1,0-1-1ZM216,131c4-7 24-9 31-5c1,1 3,2 1,2c-11-2-17,4-27,8c-3-1-5-2-5-5Z"/><path fill="#dddddd" fill-opacity="0.616" stroke="#dddddd" stroke-width="0.5" stroke-opacity="0.616" d="M216,17c0,0 1,1 1,1c0,0-1,0-1,0c0,0 0,0 0-1ZM179,101c0,0 1,1 1,1c-1,0-1,0-1,0c0,0 0-1 0-1ZM211,111c0,0 1,0 1,0c0,0 0,0 0,1c-1,0-1-1-1-1ZM110,118c0,0 1,0 1,0c0,0-1,1-1,1c0-1 0-1 0-1ZM13,228c0,0 0,1 0,1c0,0-1,0-1,0c0-1 1-1 1-1ZM34,248c0,0 1,0 1,0c0,0-1,1-1,1c0-1 0-1 0-1ZM341,258c1,0 1,1 1,1c0,0-1,0-1,0c0,0 0,0 0-1ZM347,262c0,0 1,1 1,1c0,0-1,0-1,0c0,0 0-1 0-1Z"/><path fill="#e1e1e1" fill-opacity="0.545" stroke="#e1e1e1" stroke-width="0.5" stroke-opacity="0.545" d="M164,38c1,0 1,1 0,1c0,0 0-1 0-1ZM101,113c0,0 1,0 1,0c0,1-1,1-1,1c0,0 0-1 0-1ZM223,122c0,0 0,1 0,1c0,0-1,0-1,0c0,0 1-1 1-1ZM316,176c0,0 1,0 1,0c0,0 0,1-1,1c0,0 0-1 0-1ZM97,281c0,0 1,0 1,0c0,0 0,0 0,1c-1,0-1-1-1-1ZM385,288c1,0 1,1 1,1c0,0-1,0-1,0c0,0 0,0 0-1ZM371,332c0,0 1,0 1,0c0,0 0,1 0,1c0,0-1-1-1-1ZM389,346c0,0 1,0 1,0c0,0 0,0 0,1c-1,0-1-1-1-1Z"/><path fill="#d8d8d8" fill-opacity="0.706" stroke="#d8d8d8" stroke-width="0.5" stroke-opacity="0.706" d="M166,21c0,0 1,0 1,0c0,0 0,1 0,1c0,0-1-1-1-1ZM178,100c1,0 1,1 1,1c0,0-1,0-1,0c0,0 0-1 0-1ZM144,219c1,0 1,0 1,0c0,0 0,1 0,1c0,0-1,0-1-1ZM285,229c0,0 1,1 1,1c0,0-1,0-1,0c0,0 0-1 0-1ZM433,299c0,0 1,1 1,1c0,0-1,0-1,0c0,0 0-1 0-1ZM194,319c1,0 1,1 1,1c0,0-1,0-1,0c0,0 0-1 0-1Z"/><path fill="#dfdfdf" fill-opacity="0.573" stroke="#dfdfdf" stroke-width="0.5" stroke-opacity="0.573" d="M219,139c1,0 2,0 3,0c-1,1-2,1-3,0ZM252,221c1,0 1,0 2,1c0,0-1,0-1,0c0,0-1,0-1,0c0,0 0-1 0-1Z"/><path fill="#dedede" fill-opacity="0.6" stroke="#dedede" stroke-width="0.5" stroke-opacity="0.6" d="M179,85c0,0 0,1 0,1c0,0-1,0-1,0c0-1 1-1 1-1ZM188,99c0,0 1,0 1,0c0,0 0,1 0,1c0,0-1,0-1-1ZM68,214c0,0 1,1 1,1c0,0-1,0-1,0c0,0 0-1 0-1ZM430,296c1,0 1,1 1,1c0,0-1,0-1,0c0,0 0-1 0-1ZM212,315c0,0 0,1 0,1c0,0-1,0-1,0c0,0 1-1 1-1Z"/><path fill="#d7d7d7" fill-opacity="0.725" stroke="#d7d7d7" stroke-width="0.5" stroke-opacity="0.725" d="M48,202c1,0 1,1 1,1c0,0-1,0-1,0c0,0 0-1 0-1ZM249,213c0,0 1,0 1,0c0,1 0,1 0,1c0,0-1-1-1-1ZM148,225c0,0 1,0 1,0c0,0 0,1 0,1c0,0-1,0-1-1ZM282,228c0,0 1,1 1,1c0,0-1,0-1,0c0,0 0,0 0-1Z"/><path fill="#d4d4d4" fill-opacity="0.78" stroke="#d4d4d4" stroke-width="0.5" stroke-opacity="0.78" d="M176,99c0,0 1,1 1,1c0,0-1,0-1,0c0,0 0-1 0-1ZM132,155c0,0 0,1 0,1c0,0-1,0-1,0c0-1 1-1 1-1ZM320,172c0,0 1,0 1,0c0,0-1,1-1,1c0,0 0-1 0-1Z"/><path fill="#e5e5e5" fill-opacity="0.478" stroke="#e5e5e5" stroke-width="0.5" stroke-opacity="0.478" d="M318,105c-1,0-1,0-2,0c1-1 1-1 2,0Z"/><path fill="#e3e3e3" fill-opacity="0.506" stroke="#e3e3e3" stroke-width="0.5" stroke-opacity="0.506" d="M165,15c0,1 0,1 0,2c-1-1-1-1 0-2Z"/><path fill="#fefefe" stroke="#fefefe" stroke-width="0.5" d="M263,85c5,0 9,0 14-1c7,2 19,41 14,46c-3,1-5,1-7-1c-4-16-9-31-21-43c0,0 0-1 0-1ZM248,89c0,0 1-1 0-1c11,0 25,32 24,41c-1,1-4,1-6,1c-2,0-3-1-4-2c-1-5-11-17-11-20c2-9-1-11-3-19ZM134,112c4-8 6-11 6-20c0,0 0-1 1-1c6,2 12,0 19,0c9,0 13,31 14,39c2,16-19,17-28,6c-4-5-11-18-12-24ZM151,97c1,1 1,3 2,5c3,4 5,9 8,13c0,0-1,1-1,1c-2,0-5,0-7,1c4,2 7,3 11,2c4-2-9-20-10-22c-1-1-2-1-2-2c0,1 0,1-1,2ZM146,102c1,3 5,0 2-2c-1,0-2,0-2,2ZM161,103c1,1 0,3 1,0c0-2 0-2-1,0ZM152,122c1,2 2,3 3,5c3,2 6,1 8-2c1-1 1-1 1-2c-1,0-2,0-3,1c-1,0-2,0-2,0c-3,0-5-1-7-2ZM241,137c0-3 2-4 5-4c20,0 41,0 62,1c2,1 3,2 3,4c-1,2 2,17-3,17c-7-1-1-10-7-11c-15-1-30,1-45,1c-2,0-3,2-3,5c-1,6 3,20-1,25c-1,1-2,2-4,4c-1-3-1-5-2-8c-1-11-3-23-5-34ZM150,146c1-1 1-1 3-1c2,1 5,2 8,2c6,0 12-7 16-1c2,5 5,9 8,14c0,2 1,3 1,5c-2,1-4,1-6,2c-4,0-8,1-13,2c-6,1-14-18-17-23ZM163,174c0-1 0-1 0-2c4,2 20-3 25-3c1,0 2-1 4-2c0-1-1-2-1-3c-3-6-6-12-10-18c0,0 0-1 1-1c1,0 2,1 3,2c3,4 12,20 16,21c3,0 7-1 8,2c2,3 4,7 7,10c0,1 0,2-1,2c-3,0-11,1-13-1c-2-3-3-8-9-6c-13,3-17,5-30-1ZM190,147c0,0 1-1 1,0c9,2 19,4 28,6c2,0 3,1 3,3c1,4 2,14 1,18c-5,6-16-15-18-18c-2-1-2,0-2,2c0,2 1,3 2,5c0,0-1,1 0,1c-1,0-2,0-3,0c-4-2-10-13-12-17ZM250,207c2-4 4-4 8-4c1,0 3,1 4,1c1-1 2-2 3-3c9-2 34-8 25-23c-7-7-16-4-25-2c0,0-1,0-1-1c1-1 1-2 2-4c1-5-4-5-8-6c-1-2-1-10-1-12c0-5 1-4 4-5c8,1 34-4 39,0c5,8-9,3-12,9c-3,10 2,14 10,17c4,3-1,22 3,26c3-3 2-17 3-23c2-1 4,0 5,0c1,1 1,2 1,3c-1,8-1,17-2,26c0,4-3,4-7,4c-15-1-31,0-46,0c-2,0-4-1-5-3ZM130,171c0-7 3-12 8-17c2-2 4,0 5,1c8,12 11,21 26,24c3,1 4,3 3,5c-2,5-3,10-4,15c0,3-2,4-4,3c-16-2-34-13-34-31ZM226,158c0-1 0-3 1-3c4,0 8,0 12,1c1,0 2,1 2,3c0,4 1,8 2,13c0,2-1,4-4,4c-3,0-6,0-9,0c-2-1-3-2-3-4c0-4 0-9-1-14ZM305,164c0-1 1-1 1-2c1-1-1-2-2-3c-3-1-6-1-9-1c-1-1-1-1 0-2c6,1 12,1 19,2c6,1 5,19-5,16c-4-1-14-4-17-8c0,0 0-1 0-1c4,0 7,0 10,1c1,0 4,0 3-2ZM254,178c2-4 4-7 7-10c1,5-1,11-7,10ZM274,186c0,1 0,1 0,2c-1,2 0,3 2,3c0,1 1,2 1,3c-3,1-27,8-27,5c-1-2 0-5 0-7c-1-3-1-5-2-7c0-1 0-2 1-2c9-2 18-4 27-6c3-1 6,0 9,1c0,0 0,1 0,1c-4,2-8,3-12,4c-2,2-1,3 1,3ZM186,179c3-1 10-3 11,2c0,1-11,0-11-2ZM171,203c1-6 3-13 4-18c1-2 1-3 3-3c3,1 6,1 10,2c10,1 21,2 32,1c5,0 12-2 16-1c2,1 1,7 1,8c0,3 1,6 2,8c0,2-1,3-3,3c-5,1-10,1-16,2c-6,0-47,2-49-2ZM241,185c0-1 1-2 2-2c1,1 1,1 1,2c-2,1-2,2-3,0ZM325,290c-1,0-1,1-1,2c-2,3-2,4-6,4c-21-9-46-11-68-15c-49-8-80-27-106-70c-2-6-5-12-8-17c1-1 1-1 2,0c17,17 50,15 72,15c5,0 19-3 21,0c2,3 3,6 5,9c-1,0-1,0-1,0c-3,0-4,0-6,2c0,0 1,1 1,1c11,3 28,6 39,8c26,6 48,18 69,33c3,1 3,3 2,5c-5,8-10,16-15,23ZM125,286c-1-1-3-1-4-1c-4-1-8-2-12-4c-1,0-2-1-2-3c2-9 5-19 7-28c2-3 2-10 6-10c7,1 14,1 20,1c6,0 16-5 20-2c15,18 29,26 50,36c1,0 1,0 1,1c-25,11-60,15-86,10ZM215,320c0-3 1-4 4-5c1,2 1,3 1,5c-3,5-4,7-5,0Z"/><path fill="#eb4328" stroke="#eb4328" stroke-width="0.5" d="M160,46c1-3 2-3 5-3c2,0 5,0 7,0c1,0 1,0 1-1c-2-2-3-5-6-8c0-1 0-2 0-3c-1-3 6-3 7-4c-1-5-6-7-5-13c2-1 6-1 8,0c2,0 4,1 4-1c0-4-1-9 5-9c8,1 18,11 26,16c1,0 2,1 3,3c-1,2-2,6-1,8c-1,2-4,3-5,4c-10,11 30,39 39,44c3,2 3,4-1,6c-5,1-10-7-14-9c-9-6-19-15-30-18c-4,0-7,4-6,8c-2,2-7-2-8,4c0,2 0,3 0,4c0,0-1,0-1,0c-8-5-26-19-28-28ZM211,37c1,0 2,0 3,0c3,0 5,0 7,1c0-1 0-1 0-2c-1-2-6-9-3-11c5-1 6,0 11,2c1,1 1,1 2,1c0-2-2-4-3-6c0-1-2-5 0-6c6-1 8,4 13,4c-1,0 0-2 0-2c-1-1-1-3-2-4c0-2-1-5 1-5c12-2 47,33 51,44c4,20-17,35-35,26c-15-8-38-23-45-38c0-1 0-3 0-4ZM201,29c0,2 1,2 3,1c1-3-2-4-3-1ZM265,32c1,3 5,1 2-2c-1,0-2,1-2,2ZM192,32c0,2 5,6 6,7c1,0 1,1 0,1c-1,1-1,2-2,3c0,1 1,1 2,1c2-1 6-3 4-6c-2-2-5-4-7-6c-1-1-2-1-3,0ZM256,35c0,2 3,3 4,5c-2,6 1,5 4,1c2-2-7-9-8-6ZM185,40c0,2 3,2 3-1c-2-1-3-1-3,1ZM248,40c1,3 4,2 3-1c-1-2-3,0-3,1ZM255,49c5,4 13-1 13-5c-1-5-5,3-7,3c-2,1-3,1-5,1c0,0-1,1-1,1ZM194,49c4,4 10,1 12-4c0-2 0-2-2-2c-2,2-2,4-4,4c-2,1-3,1-5,0c-1,1-1,1-1,2ZM182,86c1-1 2-1 3-1c2,0 4,0 6,0c0-1 0-2-1-3c0,0-3-3-2-4c3-1 7,4 11,3c1,0 1-1 0-2c-2-2-4-4-6-7c0-2 0-2 2-2c2,1 16,10 14,4c-4-4-7-5-9-11c-1-2 6,0 7,0c13,8 40,23 42,39c0,13-18,14-26,10c-9-4-36-16-41-23c0-1 0-2 0-3ZM214,79c0,3 5,5 5,7c-1,1-1,2-2,3c0,0 0,1 1,1c1,0 7-3 5-5c-2-2-4-4-6-6c-1-1-2-1-3,0ZM222,79c0,2 1,2 2,2c3-2-1-5-2-2ZM207,87c1,3 5,0 2-2c-1,0-2,0-2,2ZM213,95c0,1 1,1 1,1c5,3 11-1 14-5c0-2 0-2-2-2c-4,4-6,6-12,4c0,1-1,1-1,2Z"/><path fill="#1a7d45" stroke="#1a7d45" stroke-width="0.5" d="M6,247c1-8 27-38 33-44c3-1 2,1 2,2c-3,4-6,7-9,11c-8,9-17,23-26,31ZM11,250c5-10 25-33 33-43c2-1 3-1 4,0c21,13 39,25 63,31c4,1 0,9-1,11c-1,1-1,1-1,1c-5-1-13-5-16,1c-3,11 16,8 13,15c-1,2-3,11-5,11c-8,1-47-25-57-30c-14-10-27,14-33,3ZM96,253c2,0 1-2 3-2c3,0 10,1 10,4c1,8-11,3-13-2ZM325,298c1-3 3-7 6-9c2,0 6,4 8,5c6,3 11-3 9-9c-5-6-13-10-4-17c2-2 6,2 7,2c15,9 31,23 46,30c10,4 21-9 27-4c4,1 0,5-2,7c-5,6-30,33-35,35c-4-1-28-19-33-23c-10-6-19-11-28-16c-1,0-1-1-1-1ZM334,283c0-1 2-5 4-3c3,3 7,6 6,10c-1,1-5-1-6-2c-2-1-3-3-4-5ZM391,341c1-1 2-2 3-4c11-11 23-23 34-35c2-1 2,0 2,1c-9,12-23,26-34,37c-1,0-4,4-5,1Z"/><path fill="#240a06" d="M185,40c0-2 1-2 3-1c0,3-3,3-3,1ZM222,79c1-3 5,0 2,2c-1,0-2,0-2-2ZM207,87c0-2 1-2 2-2c3,2-1,5-2,2Z"/><path fill="#230a06" d="M265,32c0-1 1-2 2-2c3,3-1,5-2,2ZM248,40c0-1 2-3 3-1c1,3-2,4-3,1Z"/><path fill="#100503" d="M201,29c1-3 4-2 3,1c-2,1-3,1-3-1ZM192,32c1-1 2-1 3,0c2,2 5,4 7,6c2,3-2,5-4,6c-1,0-2,0-2-1c1-1 1-2 2-3c1,0 1-1 0-1c-1-1-6-5-6-7ZM256,35c1-3 10,4 8,6c-3,4-6,5-4-1c-1-2-4-3-4-5ZM255,49c0,0 1-1 1-1c2,0 3,0 5-1c2,0 6-8 7-3c0,4-8,9-13,5ZM194,49c0-1 0-1 1-2c2,1 3,1 5,0c2,0 2-2 4-4c2,0 2,0 2,2c-2,5-8,8-12,4ZM214,79c1-1 2-1 3,0c2,2 4,4 6,6c2,2-4,5-5,5c-1,0-1-1-1-1c0-1 1-2 2-3c0-2-5-4-5-7ZM213,95c0-1 1-1 1-2c6,2 8,0 12-4c2,0 2,0 2,2c-3,4-9,8-14,5c0,0-1,0-1-1Z"/></svg>